<?xml version="1.0" encoding="utf-8"?>
<!-- Generator: Adobe Illustrator 25.0.0, SVG Export Plug-In . SVG Version: 6.00 Build 0)  -->
<svg version="1.1" id="Layer_1" xmlns="http://www.w3.org/2000/svg" xmlns:xlink="http://www.w3.org/1999/xlink" x="0px" y="0px"
	 viewBox="0 0 458 294" style="enable-background:new 0 0 458 294;" xml:space="preserve">
<style type="text/css">
	.st0{fill:#FFC100;}
	.st1{opacity:0.75;fill:#FFFFFF;enable-background:new    ;}
	.st2{fill:#FFFFFF;stroke:#263238;stroke-miterlimit:10;}
	.st3{fill:none;stroke:#263238;stroke-miterlimit:10;}
	.st4{opacity:0.5;fill:#FFFFFF;enable-background:new    ;}
	.st5{fill:#263238;}
	.st6{fill:#263238;stroke:#263238;stroke-miterlimit:10;}
	.st7{clip-path:url(#SVGID_2_);}
	.st8{clip-path:url(#SVGID_4_);}
	.st9{opacity:0.15;enable-background:new    ;}
	.st10{fill:#8F8F8F;stroke:#263238;stroke-miterlimit:10;}
	.st11{clip-path:url(#SVGID_6_);}
	.st12{fill:#8F8F8F;}
	.st13{clip-path:url(#SVGID_8_);}
	.st14{fill:none;stroke:#263238;stroke-width:4;stroke-miterlimit:10;}
	.st15{fill:#263238;stroke:#263238;stroke-linecap:round;stroke-linejoin:round;}
	.st16{fill:#FFFFFF;stroke:#263238;stroke-linecap:round;stroke-linejoin:round;}
	.st17{fill:none;stroke:#263238;stroke-linecap:round;stroke-linejoin:round;}
	.st18{fill:#FFC100;stroke:#263238;stroke-linecap:round;stroke-linejoin:round;}
</style>
<g id="freepik--background-simple--inject-13">
	<path class="st0" d="M387.9,102.8c0,0-31.6-59.9-97.7-83.1s-96.6-2.9-130.5,19C133,55.9,112.2,81,90.3,103.1
		c-20,20.3-49.3,36-58.5,64.1C20.1,202.7,46.6,241,78,261.6c43.9,28.8,86.4,11.2,132.2,4.4h0.3c6.7-1,13.4-1.6,20.1-1.6
		c53.2,0.1,91.4,37.7,130.2-1S405.7,149.4,387.9,102.8z"/>
	<path class="st1" d="M387.9,102.8c0,0-31.6-59.9-97.7-83.1s-96.6-2.9-130.5,19C133,55.9,112.2,81,90.3,103.1
		c-20,20.3-49.3,36-58.5,64.1C20.1,202.7,46.6,241,78,261.6c43.9,28.8,86.4,11.2,132.2,4.4h0.3c6.7-1,13.4-1.6,20.1-1.6
		c53.2,0.1,91.4,37.7,130.2-1S405.7,149.4,387.9,102.8z"/>
</g>
<g id="freepik--Clouds--inject-13">
	<path class="st2" d="M366.5,92c-3.2-1.7-4.6-0.3-5.8-1.7s3.2-5.2-5.5-9c0,0-0.6-8.1-12.5-8.4S334,80.9,330.8,83s-4.1-1.2-7.3,0.9
		s-1.8,6.1-4.4,6.7s-6.1-2.6-9.3-0.6s-3.2,3.8-4.6,3.8s-4.4-1.2-6.1,0s-3.8,2.6-3.8,2.6h73.5C368.8,96.4,369.7,93.7,366.5,92z"/>
	<path class="st2" d="M185.6,117c-1.4-0.8-2.1-0.1-2.6-0.8s1.4-2.4-2.5-4.1c0,0-0.3-3.7-5.7-3.8s-3.9,3.7-5.4,4.6s-1.8-0.5-3.3,0.4
		s-0.8,2.8-2,3s-2.8-1.2-4.2-0.3s-1.4,1.7-2.1,1.7s-2-0.5-2.8,0s-1.7,1.2-1.7,1.2h33.4C186.8,118.1,186.4,117.3,185.6,117z"/>
	<path class="st2" d="M212.6,33c-2-1.1-2.9-0.2-3.6-1.1s2-3.3-3.4-5.6c0,0-0.4-5.1-7.8-5.3s-5.4,5.1-7.4,6.3s-2.5-0.7-4.5,0.6
		s-1.1,3.8-2.7,4.2s-3.8-1.6-5.8-0.4s-2,2.4-2.9,2.4s-2.7-0.7-3.8,0s-2.4,1.6-2.4,1.6h45.9C214.3,34.6,213.7,33.4,212.6,33z"/>
</g>
<g id="freepik--Buildings--inject-13">
	<rect x="75.6" y="132.7" class="st3" width="8.2" height="8.2"/>
	<rect x="66.8" y="137.7" class="st3" width="3.3" height="3.2"/>
	<polyline class="st3" points="401.9,184.6 370.9,184.6 370.9,119.4 373,119.4 373,112.6 300.6,112.6 300.6,119.4 303.1,119.4 
		303.1,216.4 284.1,216.4 284.1,8.3 218.9,8.3 218.9,165.6 195.1,165.6 195.1,148.2 201.4,148.2 201.4,140.9 149.3,140.9 
		149.3,35.3 152.6,35.3 152.6,29.8 89.4,29.8 89.4,35.3 94,35.3 94,141 44,141 44,216.7 17.8,216.7 	"/>
	<rect x="216" y="6" class="st3" width="70.6" height="2.3"/>
	<rect x="99.6" y="41.4" class="st3" width="8" height="8.5"/>
	<rect x="111.3" y="41.4" class="st3" width="8" height="8.5"/>
	<rect x="122.9" y="41.4" class="st3" width="8" height="8.5"/>
	<rect x="134.6" y="41.4" class="st3" width="8" height="8.5"/>
	<rect x="99.6" y="54.9" class="st3" width="8" height="8.5"/>
	<rect x="111.3" y="54.9" class="st3" width="8" height="8.5"/>
	<rect x="122.9" y="54.9" class="st3" width="8" height="8.5"/>
	<rect x="134.6" y="54.9" class="st3" width="8" height="8.5"/>
	<rect x="99.6" y="68.4" class="st3" width="8" height="8.5"/>
	<rect x="111.3" y="68.4" class="st3" width="8" height="8.5"/>
	<rect x="122.9" y="68.4" class="st3" width="8" height="8.5"/>
	<rect x="134.6" y="68.4" class="st3" width="8" height="8.5"/>
	<rect x="99.6" y="81.9" class="st3" width="8" height="8.5"/>
	<rect x="111.3" y="81.9" class="st3" width="8" height="8.5"/>
	<rect x="122.9" y="81.9" class="st3" width="8" height="8.5"/>
	<rect x="134.6" y="81.9" class="st3" width="8" height="8.5"/>
	<rect x="99.6" y="95.4" class="st3" width="8" height="8.5"/>
	<rect x="111.3" y="95.4" class="st3" width="8" height="8.5"/>
	<rect x="122.9" y="95.4" class="st3" width="8" height="8.5"/>
	<rect x="134.6" y="95.4" class="st3" width="8" height="8.5"/>
	<rect x="99.6" y="108.9" class="st3" width="8" height="8.5"/>
	<rect x="111.3" y="108.9" class="st3" width="8" height="8.5"/>
	<rect x="122.9" y="108.9" class="st3" width="8" height="8.5"/>
	<rect x="134.6" y="108.9" class="st3" width="8" height="8.5"/>
	<rect x="99.6" y="122.4" class="st3" width="8" height="8.5"/>
	<rect x="111.3" y="122.4" class="st3" width="8" height="8.5"/>
	<rect x="122.9" y="122.4" class="st3" width="8" height="8.5"/>
	<rect x="134.6" y="122.4" class="st3" width="8" height="8.5"/>
	<rect x="99.6" y="135.9" class="st3" width="8" height="8.5"/>
	<rect x="111.3" y="135.9" class="st3" width="8" height="8.5"/>
	<rect x="122.9" y="135.9" class="st3" width="8" height="8.5"/>
	<rect x="134.6" y="135.9" class="st3" width="8" height="8.5"/>
	<rect x="99.6" y="148.3" class="st3" width="8" height="8.5"/>
	<rect x="111.3" y="148.3" class="st3" width="8" height="8.5"/>
	<rect x="122.9" y="148.3" class="st3" width="8" height="8.5"/>
	<rect x="134.6" y="148.3" class="st3" width="8" height="8.5"/>
	<rect x="99.6" y="161.8" class="st3" width="8" height="8.5"/>
	<rect x="111.3" y="161.8" class="st3" width="8" height="8.5"/>
	<rect x="122.9" y="161.8" class="st3" width="8" height="8.5"/>
	<rect x="134.6" y="161.8" class="st3" width="8" height="8.5"/>
	<rect x="99.6" y="175.3" class="st3" width="8" height="8.5"/>
	<rect x="111.3" y="175.3" class="st3" width="8" height="8.5"/>
	<rect x="122.9" y="175.3" class="st3" width="8" height="8.5"/>
	<rect x="134.6" y="175.3" class="st3" width="8" height="8.5"/>
	<rect x="99.6" y="188.8" class="st3" width="8" height="8.5"/>
	<rect x="111.3" y="188.8" class="st3" width="8" height="8.5"/>
	<rect x="122.9" y="188.8" class="st3" width="8" height="8.5"/>
	<rect x="134.6" y="188.8" class="st3" width="8" height="8.5"/>
	<rect x="99.6" y="202.3" class="st3" width="8" height="8.5"/>
	<rect x="111.3" y="202.3" class="st3" width="8" height="8.5"/>
	<rect x="122.9" y="202.3" class="st3" width="8" height="8.5"/>
	<rect x="134.6" y="202.3" class="st3" width="8" height="8.5"/>
	<rect x="99.6" y="215.8" class="st3" width="8" height="8.5"/>
	<rect x="111.3" y="215.8" class="st3" width="8" height="8.5"/>
	<rect x="122.9" y="215.8" class="st3" width="8" height="8.5"/>
	<rect x="134.6" y="215.8" class="st3" width="8" height="8.5"/>
	<rect x="99.6" y="229.3" class="st3" width="8" height="8.5"/>
	<rect x="111.3" y="229.3" class="st3" width="8" height="8.5"/>
	<rect x="122.9" y="229.3" class="st3" width="8" height="8.5"/>
	<rect x="134.6" y="229.3" class="st3" width="8" height="8.5"/>
	<rect x="99.6" y="242.8" class="st3" width="8" height="8.5"/>
	<rect x="111.3" y="242.8" class="st3" width="8" height="8.5"/>
	<rect x="122.9" y="242.8" class="st3" width="8" height="8.5"/>
	<rect x="134.6" y="242.8" class="st3" width="8" height="8.5"/>
	<rect x="145.2" y="148.3" class="st3" width="8" height="8.5"/>
	<rect x="156.9" y="148.3" class="st3" width="8" height="8.5"/>
	<rect x="168.5" y="148.3" class="st3" width="8" height="8.5"/>
	<rect x="180.2" y="148.3" class="st3" width="8" height="8.5"/>
	<rect x="145.2" y="161.8" class="st3" width="8" height="8.5"/>
	<rect x="156.9" y="161.8" class="st3" width="8" height="8.5"/>
	<rect x="168.5" y="161.8" class="st3" width="8" height="8.5"/>
	<rect x="180.2" y="161.8" class="st3" width="8" height="8.5"/>
	<rect x="145.2" y="175.3" class="st3" width="8" height="8.5"/>
	<rect x="156.9" y="175.3" class="st3" width="8" height="8.5"/>
	<rect x="168.5" y="175.3" class="st3" width="8" height="8.5"/>
	<rect x="180.2" y="175.3" class="st3" width="8" height="8.5"/>
	<rect x="145.2" y="188.8" class="st3" width="8" height="8.5"/>
	<rect x="156.9" y="188.8" class="st3" width="8" height="8.5"/>
	<rect x="168.5" y="188.8" class="st3" width="8" height="8.5"/>
	<rect x="180.2" y="188.8" class="st3" width="8" height="8.5"/>
	<rect x="145.2" y="202.3" class="st3" width="8" height="8.5"/>
	<rect x="156.9" y="202.3" class="st3" width="8" height="8.5"/>
	<rect x="168.5" y="202.3" class="st3" width="8" height="8.5"/>
	<rect x="180.2" y="202.3" class="st3" width="8" height="8.5"/>
	<rect x="145.2" y="215.8" class="st3" width="8" height="8.5"/>
	<rect x="156.9" y="215.8" class="st3" width="8" height="8.5"/>
	<rect x="168.5" y="215.8" class="st3" width="8" height="8.5"/>
	<rect x="180.2" y="215.8" class="st3" width="8" height="8.5"/>
	<rect x="145.2" y="229.3" class="st3" width="8" height="8.5"/>
	<rect x="156.9" y="229.3" class="st3" width="8" height="8.5"/>
	<rect x="168.5" y="229.3" class="st3" width="8" height="8.5"/>
	<rect x="180.2" y="229.3" class="st3" width="8" height="8.5"/>
	<rect x="145.2" y="242.8" class="st3" width="8" height="8.5"/>
	<rect x="156.9" y="242.8" class="st3" width="8" height="8.5"/>
	<rect x="168.5" y="242.8" class="st3" width="8" height="8.5"/>
	<rect x="180.2" y="242.8" class="st3" width="8" height="8.5"/>
	<rect x="53.4" y="148.3" class="st3" width="8" height="8.5"/>
	<rect x="65.1" y="148.3" class="st3" width="8" height="8.5"/>
	<rect x="76.7" y="148.3" class="st3" width="8" height="8.5"/>
	<rect x="88.4" y="148.3" class="st3" width="8" height="8.5"/>
	<rect x="53.4" y="161.8" class="st3" width="8" height="8.5"/>
	<rect x="65.1" y="161.8" class="st3" width="8" height="8.5"/>
	<rect x="76.7" y="161.8" class="st3" width="8" height="8.5"/>
	<rect x="88.4" y="161.8" class="st3" width="8" height="8.5"/>
	<rect x="53.4" y="175.3" class="st3" width="8" height="8.5"/>
	<rect x="65.1" y="175.3" class="st3" width="8" height="8.5"/>
	<rect x="76.7" y="175.3" class="st3" width="8" height="8.5"/>
	<rect x="88.4" y="175.3" class="st3" width="8" height="8.5"/>
	<rect x="53.4" y="188.8" class="st3" width="8" height="8.5"/>
	<rect x="65.1" y="188.8" class="st3" width="8" height="8.5"/>
	<rect x="76.7" y="188.8" class="st3" width="8" height="8.5"/>
	<rect x="88.4" y="188.8" class="st3" width="8" height="8.5"/>
	<rect x="53.4" y="202.3" class="st3" width="8" height="8.5"/>
	<rect x="65.1" y="202.3" class="st3" width="8" height="8.5"/>
	<rect x="76.7" y="202.3" class="st3" width="8" height="8.5"/>
	<rect x="88.4" y="202.3" class="st3" width="8" height="8.5"/>
	<rect x="53.4" y="215.8" class="st3" width="8" height="8.5"/>
	<rect x="65.1" y="215.8" class="st3" width="8" height="8.5"/>
	<rect x="76.7" y="215.8" class="st3" width="8" height="8.5"/>
	<rect x="88.4" y="215.8" class="st3" width="8" height="8.5"/>
	<rect x="53.4" y="229.3" class="st3" width="8" height="8.5"/>
	<rect x="65.1" y="229.3" class="st3" width="8" height="8.5"/>
	<rect x="76.7" y="229.3" class="st3" width="8" height="8.5"/>
	<rect x="88.4" y="229.3" class="st3" width="8" height="8.5"/>
	<rect x="53.4" y="242.8" class="st3" width="8" height="8.5"/>
	<rect x="65.1" y="242.8" class="st3" width="8" height="8.5"/>
	<rect x="76.7" y="242.8" class="st3" width="8" height="8.5"/>
	<rect x="88.4" y="242.8" class="st3" width="8" height="8.5"/>
	<rect x="314.1" y="121.8" class="st3" width="8" height="8.5"/>
	<rect x="325.8" y="121.8" class="st3" width="8" height="8.5"/>
	<rect x="337.4" y="121.8" class="st3" width="8" height="8.5"/>
	<rect x="349.1" y="121.8" class="st3" width="8" height="8.5"/>
	<rect x="314.1" y="135.3" class="st3" width="8" height="8.5"/>
	<rect x="325.8" y="135.3" class="st3" width="8" height="8.5"/>
	<rect x="337.4" y="135.3" class="st3" width="8" height="8.5"/>
	<rect x="349.1" y="135.3" class="st3" width="8" height="8.5"/>
	<rect x="314.1" y="148.8" class="st3" width="8" height="8.5"/>
	<rect x="325.8" y="148.8" class="st3" width="8" height="8.5"/>
	<rect x="337.4" y="148.8" class="st3" width="8" height="8.5"/>
	<rect x="349.1" y="148.8" class="st3" width="8" height="8.5"/>
	<rect x="314.1" y="162.3" class="st3" width="8" height="8.5"/>
	<rect x="325.8" y="162.3" class="st3" width="8" height="8.5"/>
	<rect x="337.4" y="162.3" class="st3" width="8" height="8.5"/>
	<rect x="349.1" y="162.3" class="st3" width="8" height="8.5"/>
	<rect x="314.1" y="175.9" class="st3" width="8" height="8.5"/>
	<rect x="325.8" y="175.9" class="st3" width="8" height="8.5"/>
	<rect x="337.4" y="175.9" class="st3" width="8" height="8.5"/>
	<rect x="349.1" y="175.9" class="st3" width="8" height="8.5"/>
	<rect x="314.1" y="189.4" class="st3" width="8" height="8.5"/>
	<rect x="325.8" y="189.4" class="st3" width="8" height="8.5"/>
	<rect x="337.4" y="189.4" class="st3" width="8" height="8.5"/>
	<rect x="349.1" y="189.4" class="st3" width="8" height="8.5"/>
	<rect x="314.1" y="202.9" class="st3" width="8" height="8.5"/>
	<rect x="325.8" y="202.9" class="st3" width="8" height="8.5"/>
	<rect x="337.4" y="202.9" class="st3" width="8" height="8.5"/>
	<rect x="349.1" y="202.9" class="st3" width="8" height="8.5"/>
	<rect x="314.1" y="216.4" class="st3" width="8" height="8.5"/>
	<rect x="325.8" y="216.4" class="st3" width="8" height="8.5"/>
	<rect x="337.4" y="216.4" class="st3" width="8" height="8.5"/>
	<rect x="349.1" y="216.4" class="st3" width="8" height="8.5"/>
	<line class="st3" x1="225.1" y1="13.2" x2="225.1" y2="259.9"/>
	<line class="st3" x1="233" y1="13.2" x2="233" y2="259.9"/>
	<line class="st3" x1="240.9" y1="13.2" x2="240.9" y2="259.9"/>
	<line class="st3" x1="248.8" y1="13.2" x2="248.8" y2="259.9"/>
	<line class="st3" x1="256.6" y1="13.2" x2="256.6" y2="259.9"/>
	<line class="st3" x1="264.5" y1="13.2" x2="264.5" y2="259.9"/>
	<line class="st3" x1="272.4" y1="13.2" x2="272.4" y2="259.9"/>
	<line class="st3" x1="280.3" y1="13.2" x2="280.3" y2="259.9"/>
	<rect x="58.7" y="255.6" class="st3" width="141.5" height="8"/>
	<rect x="287.1" y="255.6" class="st3" width="127.1" height="8"/>
</g>
<g id="freepik--Trees--inject-13">
	<path class="st0" d="M275.2,255.3c0,0,13.9,1.4,20.9,10c0,0,7.4-10,20.8-9.8c9.5-11.5,8-28.5-3.5-38c-11.5-9.5-28.5-8-38,3.5
		C267.1,231,267,245.4,275.2,255.3L275.2,255.3z"/>
	<path class="st4" d="M275.2,255.3c0,0,13.9,1.4,20.9,10c0,0,7.4-10,20.8-9.8c9.5-11.5,8-28.5-3.5-38c-11.5-9.5-28.5-8-38,3.5
		C267.1,231,267,245.4,275.2,255.3L275.2,255.3z"/>
	<polygon class="st5" points="295.6,213.3 295.2,282.8 297.5,282.8 	"/>
	<path class="st5" d="M296.4,262.7c0,0,4.7-8.4,13.1-11c0,0-8.9,2.1-13.4,9.4L296.4,262.7z"/>
	<path class="st5" d="M296.4,238.8c0,0,4.7-8.4,13.1-11c0,0-8.9,2.1-13.4,9.4L296.4,238.8z"/>
	<path class="st5" d="M296.4,250.7c0,0,4.7-8.4,13.1-11c0,0-8.9,2.1-13.4,9.4L296.4,250.7z"/>
	<path class="st5" d="M295.6,244.9c0,0-4.5-8.4-12.6-11c0,0,8.6,2.1,12.9,9.4L295.6,244.9z"/>
	<path class="st5" d="M295.6,256.6c0,0-4.5-8.4-12.6-11c0,0,8.6,2.1,12.9,9.4L295.6,256.6z"/>
	<path class="st0" d="M340.5,250.1c0,0,16.5,1.6,24.9,11.9c0,0,8.9-11.9,24.8-11.6c11.3-13.7,9.4-33.9-4.2-45.2
		c-13.7-11.3-33.9-9.4-45.2,4.2C330.9,221.1,330.8,238.2,340.5,250.1L340.5,250.1z"/>
	<path class="st4" d="M340.5,250.1c0,0,16.5,1.6,24.9,11.9c0,0,8.9-11.9,24.8-11.6c11.3-13.7,9.4-33.9-4.2-45.2
		c-13.7-11.3-33.9-9.4-45.2,4.2C330.9,221.1,330.8,238.2,340.5,250.1L340.5,250.1z"/>
	<polygon class="st5" points="364.9,200 364.3,282.8 367.1,282.8 	"/>
	<path class="st5" d="M365.7,258.8c0,0,5.6-10,15.6-13.1c0,0-10.6,2.5-15.9,11.2L365.7,258.8z"/>
	<path class="st5" d="M365.7,230.4c0,0,5.6-10,15.6-13.1c0,0-10.6,2.5-15.9,11.2L365.7,230.4z"/>
	<path class="st5" d="M365.7,244.6c0,0,5.6-10,15.6-13.1c0,0-10.6,2.5-15.9,11.2L365.7,244.6z"/>
	<path class="st5" d="M364.9,237.6c0,0-5.4-10-15.1-13.1c0,0,10.2,2.5,15.3,11.2L364.9,237.6z"/>
	<path class="st5" d="M364.9,251.6c0,0-5.4-10-15.1-13.1c0,0,10.2,2.5,15.3,11.2L364.9,251.6z"/>
	<path class="st0" d="M407.1,259.6c0,0,11.7,1.2,17.6,8.4c4.3-5.2,10.7-8.2,17.5-8.2c8-9.7,6.7-24-3-32c-9.7-8-24-6.7-32,3
		C400.3,239.1,400.2,251.2,407.1,259.6L407.1,259.6z"/>
	<path class="st4" d="M407.1,259.6c0,0,11.7,1.2,17.6,8.4c4.3-5.2,10.7-8.2,17.5-8.2c8-9.7,6.7-24-3-32c-9.7-8-24-6.7-32,3
		C400.3,239.1,400.2,251.2,407.1,259.6L407.1,259.6z"/>
	<polygon class="st5" points="424.3,224.2 423.9,282.8 425.9,282.8 	"/>
	<path class="st5" d="M424.9,265.8c0,0,3.9-7.1,11-9.3c0,0-7.5,1.8-11.2,7.9L424.9,265.8z"/>
	<path class="st5" d="M424.9,245.7c0,0,3.9-7.1,11-9.3c0,0-7.5,1.8-11.2,7.9L424.9,245.7z"/>
	<path class="st5" d="M424.9,255.8c0,0,3.9-7.1,11-9.3c0,0-7.5,1.8-11.2,7.9L424.9,255.8z"/>
	<path class="st5" d="M424.3,250.8c0,0-3.8-7.1-10.7-9.3c0,0,7.2,1.8,10.9,7.9L424.3,250.8z"/>
	<path class="st5" d="M424.3,260.7c0,0-3.8-7.1-10.7-9.3c0,0,7.2,1.8,10.9,7.9L424.3,260.7z"/>
	<path class="st0" d="M33.7,255.3c0,0,13.9,1.4,20.9,10c0,0,7.4-10,20.8-9.8c9.5-11.5,8-28.5-3.5-38s-28.5-8-38,3.5
		C25.6,231,25.5,245.4,33.7,255.3L33.7,255.3z"/>
	<path class="st4" d="M33.7,255.3c0,0,13.9,1.4,20.9,10c0,0,7.4-10,20.8-9.8c9.5-11.5,8-28.5-3.5-38s-28.5-8-38,3.5
		C25.6,231,25.5,245.4,33.7,255.3L33.7,255.3z"/>
	<polygon class="st5" points="54.1,213.3 53.6,282.8 56,282.8 	"/>
	<path class="st5" d="M54.8,262.7c0,0,4.7-8.4,13.1-11c0,0-8.9,2.1-13.3,9.4L54.8,262.7z"/>
	<path class="st5" d="M54.8,238.8c0,0,4.7-8.4,13.1-11c0,0-8.9,2.1-13.3,9.4L54.8,238.8z"/>
	<path class="st5" d="M54.8,250.7c0,0,4.7-8.4,13.1-11c0,0-8.9,2.1-13.3,9.4L54.8,250.7z"/>
	<path class="st5" d="M54.1,244.9c0,0-4.5-8.4-12.7-11c0,0,8.6,2.1,12.9,9.4L54.1,244.9z"/>
	<path class="st5" d="M54.1,256.6c0,0-4.5-8.4-12.7-11c0,0,8.6,2.1,12.9,9.4L54.1,256.6z"/>
	<path class="st0" d="M99,250.1c0,0,16.5,1.6,24.9,11.9c0,0,8.9-11.9,24.8-11.6c11.3-13.7,9.4-33.9-4.2-45.2
		c-13.7-11.3-33.9-9.4-45.2,4.2C89.4,221.1,89.3,238.2,99,250.1L99,250.1z"/>
	<path class="st4" d="M99,250.1c0,0,16.5,1.6,24.9,11.9c0,0,8.9-11.9,24.8-11.6c11.3-13.7,9.4-33.9-4.2-45.2
		c-13.7-11.3-33.9-9.4-45.2,4.2C89.4,221.1,89.3,238.2,99,250.1L99,250.1z"/>
	<polygon class="st5" points="123.4,200 122.8,282.8 125.6,282.8 	"/>
	<path class="st5" d="M124.2,258.8c0,0,5.6-10,15.6-13.1c0,0-10.6,2.5-15.9,11.2L124.2,258.8z"/>
	<path class="st5" d="M124.2,230.4c0,0,5.6-10,15.6-13.1c0,0-10.6,2.5-15.9,11.2L124.2,230.4z"/>
	<path class="st5" d="M124.2,244.6c0,0,5.6-10,15.6-13.1c0,0-10.6,2.5-15.9,11.2L124.2,244.6z"/>
	<path class="st5" d="M123.4,237.6c0,0-5.4-10-15.1-13.1c0,0,10.2,2.5,15.4,11.2L123.4,237.6z"/>
	<path class="st5" d="M123.4,251.6c0,0-5.4-10-15.1-13.1c0,0,10.2,2.5,15.4,11.2L123.4,251.6z"/>
	<path class="st0" d="M165.5,259.6c0,0,11.7,1.2,17.6,8.4c4.3-5.2,10.7-8.2,17.5-8.2c8-9.7,6.7-24-3-32c-9.7-8-24-6.7-32,3
		C158.7,239.1,158.7,251.2,165.5,259.6L165.5,259.6z"/>
	<path class="st4" d="M165.5,259.6c0,0,11.7,1.2,17.6,8.4c4.3-5.2,10.7-8.2,17.5-8.2c8-9.7,6.7-24-3-32c-9.7-8-24-6.7-32,3
		C158.7,239.1,158.7,251.2,165.5,259.6L165.5,259.6z"/>
	<polygon class="st5" points="182.8,224.2 182.4,282.8 184.4,282.8 	"/>
	<path class="st5" d="M183.4,265.8c0,0,3.9-7.1,11.1-9.3c0,0-7.5,1.8-11.2,7.9L183.4,265.8z"/>
	<path class="st5" d="M183.4,245.7c0,0,3.9-7.1,11.1-9.3c0,0-7.5,1.8-11.2,7.9L183.4,245.7z"/>
	<path class="st5" d="M183.4,255.8c0,0,3.9-7.1,11.1-9.3c0,0-7.5,1.8-11.2,7.9L183.4,255.8z"/>
	<path class="st5" d="M182.8,250.8c0,0-3.8-7.1-10.7-9.3c0,0,7.2,1.8,10.9,7.9L182.8,250.8z"/>
	<path class="st5" d="M182.8,260.7c0,0-3.8-7.1-10.7-9.3c0,0,7.2,1.8,10.9,7.9L182.8,260.7z"/>
</g>
<g id="freepik--Car--inject-13">
	<circle class="st6" cx="315.5" cy="256" r="26.8"/>
	
		<ellipse transform="matrix(0.7071 -0.7071 0.7071 0.7071 -143.5224 165.5722)" class="st6" cx="128.1" cy="256" rx="26.8" ry="26.8"/>
	<path class="st0" d="M297.5,205.3c0,0-7.1-4.4-39.5-15.1s-53.3-14.2-85.3-13.3s-75.1,12.9-83.1,16s-11.6,4-9.8,6.2
		s11.5,10.2,10.2,13.8S67,236,65.6,239.1s4.4,13.8,5.3,16.4s5.8,3.5,9.8,4s288.2,0,288.2,0s4-4.9,3.1-11.1s-1.8-14.4-5.9-19.7
		c-3.2-4.3-6.6-8.8-15-9.6C345.9,218.5,298.8,205.8,297.5,205.3z"/>
	<g>
		<defs>
			<path id="SVGID_1_" d="M297.5,205.3c0,0-7.1-4.4-39.5-15.1s-53.3-14.2-85.3-13.3s-75.1,12.9-83.1,16s-11.6,4-9.8,6.2
				s11.5,10.2,10.2,13.8S67,236,65.6,239.1s4.4,13.8,5.3,16.4s5.8,3.5,9.8,4s288.2,0,288.2,0s4-4.9,3.1-11.1s-1.8-14.4-5.9-19.7
				c-3.2-4.3-6.6-8.8-15-9.6C345.9,218.5,298.8,205.8,297.5,205.3z"/>
		</defs>
		<clipPath id="SVGID_2_">
			<use xlink:href="#SVGID_1_"  style="overflow:visible;"/>
		</clipPath>
		<g class="st7">
			<path class="st0" d="M297.5,205.3c0,0-7.1-4.4-39.5-15.1s-53.3-14.2-85.3-13.3s-75.1,12.9-83.1,16s-11.6,4-9.8,6.2
				s11.5,10.2,10.2,13.8S67,236,65.6,239.1s4.4,13.8,5.3,16.4s5.8,3.5,9.8,4s288.2,0,288.2,0s4-4.9,3.1-11.1s-1.8-14.4-5.9-19.7
				c-3.2-4.3-6.6-8.8-15-9.6C345.9,218.5,298.8,205.8,297.5,205.3z"/>
			<g>
				<defs>
					<path id="SVGID_3_" d="M297.5,205.3c0,0-7.1-4.4-39.5-15.1s-53.3-14.2-85.3-13.3s-75.1,12.9-83.1,16s-11.6,4-9.8,6.2
						s11.5,10.2,10.2,13.8S67,236,65.6,239.1s4.4,13.8,5.3,16.4s5.8,3.5,9.8,4s288.2,0,288.2,0s4-4.9,3.1-11.1s-1.8-14.4-5.9-19.7
						c-3.2-4.3-6.6-8.8-15-9.6C345.9,218.5,298.8,205.8,297.5,205.3z"/>
				</defs>
				<clipPath id="SVGID_4_">
					<use xlink:href="#SVGID_3_"  style="overflow:visible;"/>
				</clipPath>
				<g class="st8">
					<path class="st9" d="M297.5,205.3c0,0-7.1-4.4-39.5-15.1s-53.3-14.2-85.3-13.3s-75.1,12.9-83.1,16s-11.6,4-9.8,6.2
						s11.5,10.2,10.2,13.8S67,236,65.6,239.1s4.4,13.8,5.3,16.4s5.8,3.5,9.8,4s288.2,0,288.2,0s4-4.9,3.1-11.1s-1.8-14.4-5.9-19.7
						c-3.2-4.3-6.6-8.8-15-9.6C345.9,218.5,298.8,205.8,297.5,205.3z"/>
				</g>
			</g>
		</g>
	</g>
	<path class="st3" d="M297.5,205.3c0,0-7.1-4.4-39.5-15.1s-53.3-14.2-85.3-13.3s-75.1,12.9-83.1,16s-11.6,4-9.8,6.2
		s11.5,10.2,10.2,13.8S67,236,65.6,239.1s4.4,13.8,5.3,16.4s5.8,3.5,9.8,4s288.2,0,288.2,0s4-4.9,3.1-11.1s-1.8-14.4-5.9-19.7
		c-3.2-4.3-6.6-8.8-15-9.6C345.9,218.5,298.8,205.8,297.5,205.3z"/>
	<rect x="352.1" y="236.4" class="st6" width="16.9" height="4.4"/>
	<path class="st2" d="M344,228.7h2.7c3.5,0,6.7,2.1,8,5.4l2.7,6.7h-8.8L344,228.7z"/>
	<path class="st2" d="M368.8,233.3c-0.1,0.3-0.2,0.6-0.3,0.9l-1.8,6.7h4.2C370.4,238.3,369.7,235.7,368.8,233.3z"/>
	<path class="st6" d="M297.5,205.3c0,0-7.1-4.4-39.5-15.1c-7.4-2.4-14.2-4.5-20.7-6.2h-22.9l-4.9,1.3l65.7,20L297.5,205.3z"/>
	<path class="st10" d="M58.1,198.2v30c0,0,18.3-15,16-19.3S58.1,198.2,58.1,198.2z"/>
	<path class="st0" d="M275.3,205.3c0,0-7.1-4.4-39.5-15.1s-53.3-14.2-85.3-13.3s-75.1,12.9-83,16s-11.6,4-9.8,6.2
		s11.6,10.2,10.2,13.8S44.8,236,43.4,239.1s4.4,13.8,5.3,16.4s5.8,3.5,9.8,4s288.2,0,288.2,0s4-4.9,3.1-11.1S348,234,344,228.7
		c-3.2-4.3-6.6-8.8-15-9.6C323.7,218.5,276.6,205.8,275.3,205.3z"/>
	<g>
		<defs>
			<path id="SVGID_5_" d="M275.3,205.3c0,0-7.1-4.4-39.5-15.1s-53.3-14.2-85.3-13.3s-75.1,12.9-83,16s-11.6,4-9.8,6.2
				s11.6,10.2,10.2,13.8S44.8,236,43.4,239.1s4.4,13.8,5.3,16.4s5.8,3.5,9.8,4s288.2,0,288.2,0s4-4.9,3.1-11.1S348,234,344,228.7
				c-3.2-4.3-6.6-8.8-15-9.6C323.7,218.5,276.6,205.8,275.3,205.3z"/>
		</defs>
		<clipPath id="SVGID_6_">
			<use xlink:href="#SVGID_5_"  style="overflow:visible;"/>
		</clipPath>
		<g class="st11">
			<path class="st9" d="M344,228.7c-3.2-4.3-6.6-8.8-15-9.6c-1.4-0.1-5.7-1.1-11.4-2.5c-26.8-0.3-41.8,10.6-81.9,14.3
				c-52.2,4.8-88.4-8.3-131.9-13.5c-18.2-2.2-32.8,0.5-43.7,4.3c-6.8,6.9-15.9,15.5-16.7,17.4c-1.3,3.1,4.4,13.8,5.3,16.4
				s5.8,3.5,9.8,4s288.2,0,288.2,0s4-4.9,3.1-11.1S348,234,344,228.7z"/>
		</g>
	</g>
	<path class="st3" d="M275.3,205.3c0,0-7.1-4.4-39.5-15.1s-53.3-14.2-85.3-13.3s-75.1,12.9-83,16s-11.6,4-9.8,6.2
		s11.6,10.2,10.2,13.8S44.8,236,43.4,239.1s4.4,13.8,5.3,16.4s5.8,3.5,9.8,4s288.2,0,288.2,0s4-4.9,3.1-11.1S348,234,344,228.7
		c-3.2-4.3-6.6-8.8-15-9.6C323.7,218.5,276.6,205.8,275.3,205.3z"/>
	<path class="st12" d="M107.3,188.9l17.8,18.8h130.6v-4.3c0,0-26.8-10.5-55-16s-35.3-5-48-4.8S107.3,188.9,107.3,188.9z"/>
	<g>
		<defs>
			<path id="SVGID_7_" d="M107.3,188.9l17.8,18.8h130.6v-4.3c0,0-26.8-10.5-55-16s-35.3-5-48-4.8S107.3,188.9,107.3,188.9z"/>
		</defs>
		<clipPath id="SVGID_8_">
			<use xlink:href="#SVGID_7_"  style="overflow:visible;"/>
		</clipPath>
		<g class="st13">
			<path class="st6" d="M171,199.5c-16.6-3.8-34-2.4-49.8,4.1l3.9,4.1h130.6v-4.3c0,0-4.3-1.7-11.4-4.1
				C229.7,205,200.5,206,171,199.5z"/>
		</g>
	</g>
	<path class="st14" d="M107.3,188.9l17.8,18.8h130.6v-4.3c0,0-26.8-10.5-55-16s-35.3-5-48-4.8S107.3,188.9,107.3,188.9z"/>
	<line class="st3" x1="166.4" y1="210.2" x2="166.4" y2="251"/>
	
		<ellipse transform="matrix(0.9741 -0.2261 0.2261 0.9741 -55.3683 28.7659)" class="st6" cx="97.9" cy="256.1" rx="26.8" ry="26.8"/>
	<path class="st2" d="M97.9,236.7c-10.7,0-19.3,8.6-19.3,19.3c0,10.7,8.6,19.3,19.3,19.3c10.7,0,19.3-8.6,19.3-19.3c0,0,0,0,0,0
		C117.2,245.3,108.6,236.7,97.9,236.7z M110.9,252.2l-11.2,2.1l3.2-10.9C106.7,244.9,109.7,248.2,110.9,252.2L110.9,252.2z
		 M98.9,255.1v1.9H97v-1.9H98.9z M94.1,243.1l2.1,11.2l-10.9-3.2C86.8,247.2,90,244.3,94.1,243.1L94.1,243.1z M85,259.9l11.2-2.1
		L93,268.6C89.1,267.1,86.1,263.9,85,259.9L85,259.9z M101.8,269l-2.1-11.2l10.8,3.2C109,264.9,105.8,267.8,101.8,269L101.8,269z"/>
	<path class="st2" d="M103.9,256c0-3.3-2.7-6-6-6s-6,2.7-6,6s2.7,6,6,6S103.9,259.3,103.9,256z"/>
	<circle class="st6" cx="286.2" cy="256" r="26.8"/>
	<path class="st2" d="M286.2,236.7c-10.7,0-19.3,8.6-19.3,19.3c0,10.7,8.6,19.3,19.3,19.3c10.7,0,19.3-8.6,19.3-19.3c0,0,0,0,0,0
		C305.5,245.3,296.9,236.7,286.2,236.7z M299.2,252.2l-11.2,2.1l3.2-10.9C295,245,298,248.2,299.2,252.2L299.2,252.2z M287.2,255.1
		v1.9h-1.9v-1.9H287.2z M282.4,243.1l2.1,11.2l-10.9-3.2C275.1,247.2,278.4,244.3,282.4,243.1L282.4,243.1z M273.3,259.9l11.2-2.1
		l-3.2,10.9C277.4,267.1,274.4,263.9,273.3,259.9L273.3,259.9z M290.1,269l-2.1-11.2l10.8,3.2C297.3,264.9,294.1,267.8,290.1,269
		L290.1,269z"/>
	<path class="st2" d="M292.2,256c0-3.3-2.7-6-6-6s-6,2.7-6,6s2.7,6,6,6S292.2,259.3,292.2,256z"/>
	<path class="st2" d="M344,228.7c0,0-19.9-1-20.8,0s6.7,9,9.3,10.8c2.1,1.4,12,1.1,16.1,1C347.8,236.2,346.5,231.9,344,228.7z"/>
	<path class="st6" d="M169.6,182.8c-1.3-0.1-2.5-0.1-3.7-0.2l-3.4,25h8.9L169.6,182.8z"/>
</g>
<g id="freepik--Character--inject-13">
	<path class="st15" d="M202.7,274.9c-1.6,1-3.3,1.9-5,2.6c-2.1,0.8-3.6,1.3-3.1,2.6s2.7,2.4,5.7,3s8.2-0.7,9.7-1.1s1.6-2.8,0.6-4.1
		S204.4,274.2,202.7,274.9z"/>
	<path class="st16" d="M203.6,282.5c-2.4,0-6.5-0.9-6.5-1.8s1-1.6-0.2-1.9s-2,1.4-2.2,1.8c0.7,1.2,2.9,2.2,5.6,2.7
		c3,0.6,8.2-0.7,9.7-1.1c0.5-0.2,0.9-0.6,1.1-1.1C208.6,281.9,206.1,282.4,203.6,282.5z"/>
	<path class="st17" d="M215.2,209.5l0.6,2c-0.8,0.6-1.2,1.6-1.2,2.5c0.2,1.1,0.8,2.1,1.7,2.9"/>
	<path class="st16" d="M209,205.6c-0.6,1.7-1.1,3.4-1.5,5.1v2.8c0,0.5-2,11.3-2.4,17.9s-0.7,14.4-1.2,16.1s0.1,2.6,0.2,5.1
		s0.2,14.8,0.2,14.8s-0.5,3.3-0.6,4.1s-1.1,1.1-1.4,1.6c-0.3,0.8-0.6,1.7-0.8,2.5c1.6,0.4,3,1.3,4.2,2.5c1.4,1.7,5.3,3.9,5.8,3.8
		s0.8-1.5,1.6-3.5s0.7-3,1.1-3.8s1-2.1,1.9-8.2s1.7-15.2,2.2-16.4s3.1-5.8,3.1-5.8c2.3-4.4,4.3-9,5.9-13.8c1.5-4.4,2.6-8.9,3.4-13.4
		c0.5-3.1,0.8-6.3,0.9-9.5v-1c0,0-3.8,1.4-10.5,0.7S209,205.6,209,205.6z"/>
	<path class="st17" d="M223.1,211.5c0,0-4.6,2.4-5.3,3.7s-1.6,6.4-3.7,12.8s-3.9,11.3-5.6,16.7c-1.1,3.1-1.8,6.3-2.1,9.6
		c-0.6,4-2,14.6-2,14.6"/>
	<path class="st17" d="M211,279.9c0,0,2.2-0.8,2.2-5.4s-0.8-7.8,0-12.2s2.9-11.5,4.1-13.6s2.6-4.9,2.6-4.9"/>
	<path class="st16" d="M218.8,242.2c0,0,3.6,2.5,4.3,1.5c1.1-2,2-4,2.8-6.1c0.9-2.3,1.3-3.5,1.3-3.5s1-0.1,1.1-1s0.3-2.6,0.3-2.6
		c-1.1,0-2.2-0.2-3.3-0.4c-1.9-0.4-2.6-0.3-3.1,0.6c-0.3,0.6-0.6,1.3-0.8,1.9c-0.6,1.6-3,7.1-3.1,7.9S218.2,241.6,218.8,242.2z"/>
	<path class="st18" d="M227.1,234.2c-1.4-0.1-2.8-0.3-4.2-0.5c-1.1-0.3-0.5-1.7-0.5-1.7"/>
	<path class="st17" d="M225.7,230.1c0,0,2.6-8.5,3-10.3l0.4-1.7"/>
	<path class="st17" d="M226.5,209.1c0,0-0.7,3.6,0,5.5c0.8,1.7,2,3.1,3.6,4.2"/>
	<path class="st17" d="M211.8,210.7c0,0,5.3,1.5,8.4,0.4"/>
	<path class="st15" d="M221.4,170.6c0,0-6.9,1.7-9,2.1s-3.1,0.4-3.5,1.3c-2.2,4.2-4.8,8.1-7.7,11.8c-2.3,2.5-2.5,5-1.8,6.3
		s1.5,1.9,4.6,1.1c2-0.6,3.7-1.8,5-3.4c0,0,0.7,7.6-0.3,10.7s-1.4,5.5-0.7,6c3.1,1.7,6.6,2.6,10.1,2.6c5.6,0.2,12-0.3,13-1.3
		c0.7-0.6,1.1-1.4,1-2.3c0-0.7-0.4-5.5,0.8-9.3s4.7-13.4,4.8-17.1s-1.3-4.2-4.1-5.3s-7.1-3-8.1-3.3
		C224.1,170.6,222.8,170.6,221.4,170.6z"/>
	<path class="st16" d="M220,168.8c-0.8,0.5-1.6,1.1-2.3,1.8c-0.1,0.3-3.7,6-3.3,6s4.9-2.2,4.9-2.2s2.2-3.4,2-4.7
		c0-0.6-0.5-1-1.1-0.9C220.2,168.8,220.1,168.8,220,168.8z"/>
	<path class="st16" d="M219.1,167.7c0.1,2.3-0.1,4.5-0.5,6.7c-0.7,2.8-1.2,4.6-0.2,4.9s4.4-4.7,5.3-6.1c0.5-0.8,0.9-1.7,1.2-2.6
		l0.7-7.9C225.7,162.6,221.6,167,219.1,167.7z"/>
	<path class="st16" d="M215.5,148.8c0,0-1,8.7-1,11.9s2.1,7.4,3.1,7.8s3.6,0.8,4.6,0.1s3.9-5.1,3.9-5.1c1-3.1,1.7-6.2,2.1-9.4
		c0.3-3.5-0.6-5.1-3.8-6.1S217.1,147,215.5,148.8z"/>
	<path class="st17" d="M217.9,156.2c0,0-0.9,5-0.5,5.1c0.6,0.1,1.2,0.1,1.8,0.1"/>
	<path class="st17" d="M217.8,163.1c0,0,2.8,0.6,4.2-0.7"/>
	<path class="st5" d="M221.7,156.3c0,0.4-0.2,0.7-0.5,0.7s-0.4-0.4-0.3-0.8s0.3-0.8,0.5-0.7S221.7,155.9,221.7,156.3z"/>
	<path class="st5" d="M217.4,155.9c0,0.4-0.3,0.7-0.5,0.7s-0.4-0.4-0.3-0.8s0.3-0.7,0.5-0.7S217.4,155.5,217.4,155.9z"/>
	<path class="st17" d="M215.5,154.4c0.5-0.7,1.5-0.8,2.2-0.3c0.1,0.1,0.2,0.1,0.2,0.2"/>
	<path class="st17" d="M219.9,154.1c0,0,1.9-1.5,3,0.1"/>
	<path class="st15" d="M213.9,147.3c0,0.1,0,0.2,0,0.2c0.3,1.1,1.2,1.9,2.2,2.2c2.2,0.9,7.5-0.2,9.4,0.4s1,2.3-0.1,2.9
		c-1.1,0.6-1.3,0.9-0.8,1.6s1.7,1.4,1.3,2.2s-0.6,1.6,0.1,1.7s1.2,0.1,1.5-0.3s2.3-4.8,2.3-7.3s-1.2-3.7-4.1-4.8s-8.8-1.8-10.5-0.8
		C214.5,145.8,214,146.5,213.9,147.3z"/>
	<path class="st16" d="M225.7,162.4c0.5,0.5,1.4,0.6,2,0.2c1.1-0.7,1.6-3.3,0.9-4.6s-2.1,1.2-2.1,1.2"/>
	<path class="st16" d="M221.4,170.6c0,0-0.2,9.1,0.4,8s5.7-7.7,5.7-7.7l-1.2-3.6L221.4,170.6z"/>
	<path class="st15" d="M230.4,180.6l-3.5,10.8l6.3,8c0,0,0.3,0.6,0.8-0.1s0.9-0.7,1.7-4.6s2-13.2,1.9-15.5s-0.5-3.4-2.2-3.7"/>
	<path class="st16" d="M211.1,193.1c0,0,15.8,6,17.9,6.1s2.6-1.3,1.7-4s-3.7-4.2-6-4.9c-2.7-0.6-5.5-0.6-8.1,0.1
		C214.2,191.1,211.1,192.3,211.1,193.1z"/>
	<path class="st16" d="M224.2,190.3c0,0,3.8,8.1,4,8.9s4.1,1.2,5.3,1.1s0.7-1.9-0.5-4.6s-3.2-5-4.6-5.4
		C227,190.1,225.6,190.1,224.2,190.3z"/>
	<path class="st15" d="M203.1,187.5c-1.3,0.1-2.6,0.4-3.9,0.8c-1.4,0.6-1.7,4.9-1,6.4s2.9,1.5,4.5,1.4c0.9,0,1.7-0.4,2.2-1.1
		l1.1-7.5L203.1,187.5z"/>
	<path class="st16" d="M206.1,187.5c0,0,11.5,0,14.4-0.1s3.6,0.6,4.2,1.6s0.8,1.4,0.8,1.4c-3.6,0.3-7.2,1.1-10.6,2.3
		c-4.7,1.8-8.8,3.5-10.2,3.5s-2-3.7-1.4-6.2C203.5,188.6,204.6,187.5,206.1,187.5z"/>
	<path class="st16" d="M202.8,186.7c0,0,4.9-0.1,4.8,0.8s-1,7.8-1.3,8.5s-3.2,0.9-4.7,0.8s-0.9-4.7,0-6.8
		C202.1,188.9,202.5,187.8,202.8,186.7z"/>
	<path class="st17" d="M217.4,210c0,0,0.8,1.2,0.5,1.5s-1.8,1.7-1.7,2.6c0,0.5,0.3,1,0.6,1.4"/>
</g>
<g id="freepik--Floor--inject-13">
	<line class="st17" x1="31.9" y1="282.8" x2="440.7" y2="282.8"/>
</g>
</svg>
