<svg xmlns="http://www.w3.org/2000/svg" xmlns:xlink="http://www.w3.org/1999/xlink" viewBox="0 0 500 500"><defs><clipPath id="freepik--clip-path--inject-41"><path d="M318.47,308.32s-7.1-4.44-39.52-15.1S225.65,279,193.68,279.9s-75.06,12.88-83.05,16-11.55,4-9.77,6.21,11.54,10.22,10.21,13.77S88,339,86.64,342.07s4.45,13.77,5.33,16.44,5.78,3.55,9.77,4,288.24,0,288.24,0,4-4.88,3.11-11.1-1.84-14.42-5.85-19.67c-3.24-4.26-6.59-8.75-15-9.64C366.91,321.53,319.81,308.77,318.47,308.32Z" style="fill:#1675E0;stroke:#263238;stroke-miterlimit:10"></path></clipPath><clipPath id="freepik--clip-path-2--inject-41"><path d="M318.47,308.32s-7.1-4.44-39.52-15.1S225.65,279,193.68,279.9s-75.06,12.88-83.05,16-11.55,4-9.77,6.21,11.54,10.22,10.21,13.77S88,339,86.64,342.07s4.45,13.77,5.33,16.44,5.78,3.55,9.77,4,288.24,0,288.24,0,4-4.88,3.11-11.1-1.84-14.42-5.85-19.67c-3.24-4.26-6.59-8.75-15-9.64C366.91,321.53,319.81,308.77,318.47,308.32Z" style="fill:#1675E0"></path></clipPath><clipPath id="freepik--clip-path-3--inject-41"><path d="M296.27,308.32s-7.11-4.44-39.53-15.1S203.45,279,171.47,279.9s-75.06,12.88-83,16-11.55,4-9.77,6.21,11.55,10.22,10.21,13.77S65.77,339,64.44,342.07s4.44,13.77,5.33,16.44,5.77,3.55,9.77,4,288.23,0,288.23,0,4-4.88,3.11-11.1S369,337,365,331.73c-3.24-4.26-6.6-8.75-15-9.64C344.71,321.53,297.6,308.77,296.27,308.32Z" style="fill:#1675E0;stroke:#263238;stroke-miterlimit:10"></path></clipPath><clipPath id="freepik--clip-path-4--inject-41"><path d="M128.31,291.94l17.77,18.77H276.7v-4.26s-26.77-10.51-55-16-35.28-5-48-4.76S128.31,291.94,128.31,291.94Z" style="fill:#8f8f8f;stroke:#263238;stroke-miterlimit:10;stroke-width:4px"></path></clipPath></defs><g id="freepik--background-simple--inject-41"><path d="M408.91,205.78s-31.65-59.9-97.74-83.12-96.63-2.94-130.49,19C154,158.93,133.16,184,111.33,206.09c-20,20.28-49.3,36-58.55,64.07C41.09,305.66,67.59,344,99,364.65c43.88,28.78,86.42,11.17,132.24,4.41l.26,0a138.75,138.75,0,0,1,20.1-1.6c53.22.11,91.41,37.69,130.18-1S426.74,252.4,408.91,205.78Z" style="fill:#1675E0"></path><path d="M408.91,205.78s-31.65-59.9-97.74-83.12-96.63-2.94-130.49,19C154,158.93,133.16,184,111.33,206.09c-20,20.28-49.3,36-58.55,64.07C41.09,305.66,67.59,344,99,364.65c43.88,28.78,86.42,11.17,132.24,4.41l.26,0a138.75,138.75,0,0,1,20.1-1.6c53.22.11,91.41,37.69,130.18-1S426.74,252.4,408.91,205.78Z" style="fill:#fff;opacity:0.75"></path></g><g id="freepik--Clouds--inject-41"><path d="M387.48,195c-3.19-1.74-4.64-.29-5.81-1.74s3.2-5.23-5.51-9c0,0-.58-8.13-12.49-8.42S355,183.93,351.77,186s-4.07-1.16-7.26.87-1.75,6.1-4.36,6.68-6.1-2.61-9.29-.58-3.2,3.77-4.65,3.77-4.35-1.16-6.1,0-3.77,2.62-3.77,2.62H389.8S390.68,196.7,387.48,195Z" style="fill:#fff;stroke:#263238;stroke-miterlimit:10"></path><path d="M206.6,220c-1.45-.79-2.11-.13-2.63-.79s1.45-2.37-2.51-4.08c0,0-.26-3.7-5.67-3.83s-3.95,3.69-5.4,4.62-1.84-.53-3.29.39-.8,2.77-2,3-2.77-1.18-4.22-.26-1.45,1.71-2.11,1.71-2-.52-2.77,0-1.71,1.19-1.71,1.19h33.35A1.71,1.71,0,0,0,206.6,220Z" style="fill:#fff;stroke:#263238;stroke-miterlimit:10"></path><path d="M233.62,136c-2-1.08-2.9-.18-3.63-1.08s2-3.27-3.44-5.62c0,0-.36-5.08-7.79-5.26s-5.44,5.08-7.44,6.34-2.53-.72-4.53.55-1.08,3.8-2.72,4.17-3.8-1.63-5.79-.37-2,2.36-2.9,2.36-2.72-.73-3.81,0-2.36,1.63-2.36,1.63h45.86A2.35,2.35,0,0,0,233.62,136Z" style="fill:#fff;stroke:#263238;stroke-miterlimit:10"></path></g><g id="freepik--Buildings--inject-41"><rect x="96.6" y="235.7" width="8.16" height="8.22" style="fill:none;stroke:#263238;stroke-miterlimit:10"></rect><rect x="87.79" y="240.67" width="3.31" height="3.24" style="fill:none;stroke:#263238;stroke-miterlimit:10"></rect><polyline points="422.86 287.6 391.94 287.6 391.94 222.38 394.01 222.38 394.01 215.62 321.58 215.62 321.58 222.38 324.09 222.38 324.09 319.37 305.09 319.37 305.09 111.28 239.94 111.28 239.94 268.65 216.13 268.65 216.13 251.23 222.36 251.23 222.36 243.86 170.28 243.86 170.28 138.28 173.65 138.28 173.65 132.76 110.42 132.76 110.42 138.28 114.96 138.28 114.96 244.04 64.99 244.04 64.99 319.67 38.75 319.67" style="fill:none;stroke:#263238;stroke-miterlimit:10"></polyline><rect x="237.04" y="109" width="70.64" height="2.26" style="fill:none;stroke:#263238;stroke-miterlimit:10"></rect><rect x="120.61" y="144.42" width="7.96" height="8.52" style="fill:none;stroke:#263238;stroke-miterlimit:10"></rect><rect x="132.28" y="144.42" width="7.96" height="8.52" style="fill:none;stroke:#263238;stroke-miterlimit:10"></rect><rect x="143.95" y="144.42" width="7.96" height="8.52" style="fill:none;stroke:#263238;stroke-miterlimit:10"></rect><rect x="155.63" y="144.42" width="7.96" height="8.52" style="fill:none;stroke:#263238;stroke-miterlimit:10"></rect><rect x="120.61" y="157.93" width="7.96" height="8.52" style="fill:none;stroke:#263238;stroke-miterlimit:10"></rect><rect x="132.28" y="157.93" width="7.96" height="8.52" style="fill:none;stroke:#263238;stroke-miterlimit:10"></rect><rect x="143.95" y="157.93" width="7.96" height="8.52" style="fill:none;stroke:#263238;stroke-miterlimit:10"></rect><rect x="155.63" y="157.93" width="7.96" height="8.52" style="fill:none;stroke:#263238;stroke-miterlimit:10"></rect><rect x="120.61" y="171.43" width="7.96" height="8.52" style="fill:none;stroke:#263238;stroke-miterlimit:10"></rect><rect x="132.28" y="171.43" width="7.96" height="8.52" style="fill:none;stroke:#263238;stroke-miterlimit:10"></rect><rect x="143.95" y="171.43" width="7.96" height="8.52" style="fill:none;stroke:#263238;stroke-miterlimit:10"></rect><rect x="155.63" y="171.43" width="7.96" height="8.52" style="fill:none;stroke:#263238;stroke-miterlimit:10"></rect><rect x="120.61" y="184.93" width="7.96" height="8.52" style="fill:none;stroke:#263238;stroke-miterlimit:10"></rect><rect x="132.28" y="184.93" width="7.96" height="8.52" style="fill:none;stroke:#263238;stroke-miterlimit:10"></rect><rect x="143.95" y="184.93" width="7.96" height="8.52" style="fill:none;stroke:#263238;stroke-miterlimit:10"></rect><rect x="155.63" y="184.93" width="7.96" height="8.52" style="fill:none;stroke:#263238;stroke-miterlimit:10"></rect><rect x="120.61" y="198.44" width="7.96" height="8.52" style="fill:none;stroke:#263238;stroke-miterlimit:10"></rect><rect x="132.28" y="198.44" width="7.96" height="8.52" style="fill:none;stroke:#263238;stroke-miterlimit:10"></rect><rect x="143.95" y="198.44" width="7.96" height="8.52" style="fill:none;stroke:#263238;stroke-miterlimit:10"></rect><rect x="155.63" y="198.44" width="7.96" height="8.52" style="fill:none;stroke:#263238;stroke-miterlimit:10"></rect><rect x="120.61" y="211.94" width="7.96" height="8.52" style="fill:none;stroke:#263238;stroke-miterlimit:10"></rect><rect x="132.28" y="211.94" width="7.96" height="8.52" style="fill:none;stroke:#263238;stroke-miterlimit:10"></rect><rect x="143.95" y="211.94" width="7.96" height="8.52" style="fill:none;stroke:#263238;stroke-miterlimit:10"></rect><rect x="155.63" y="211.94" width="7.96" height="8.52" style="fill:none;stroke:#263238;stroke-miterlimit:10"></rect><rect x="120.61" y="225.45" width="7.96" height="8.52" style="fill:none;stroke:#263238;stroke-miterlimit:10"></rect><rect x="132.28" y="225.45" width="7.96" height="8.52" style="fill:none;stroke:#263238;stroke-miterlimit:10"></rect><rect x="143.95" y="225.45" width="7.96" height="8.52" style="fill:none;stroke:#263238;stroke-miterlimit:10"></rect><rect x="155.63" y="225.45" width="7.96" height="8.52" style="fill:none;stroke:#263238;stroke-miterlimit:10"></rect><rect x="120.61" y="238.95" width="7.96" height="8.52" style="fill:none;stroke:#263238;stroke-miterlimit:10"></rect><rect x="132.28" y="238.95" width="7.96" height="8.52" style="fill:none;stroke:#263238;stroke-miterlimit:10"></rect><rect x="143.95" y="238.95" width="7.96" height="8.52" style="fill:none;stroke:#263238;stroke-miterlimit:10"></rect><rect x="155.63" y="238.95" width="7.96" height="8.52" style="fill:none;stroke:#263238;stroke-miterlimit:10"></rect><rect x="120.61" y="251.3" width="7.96" height="8.52" style="fill:none;stroke:#263238;stroke-miterlimit:10"></rect><rect x="132.28" y="251.3" width="7.96" height="8.52" style="fill:none;stroke:#263238;stroke-miterlimit:10"></rect><rect x="143.95" y="251.3" width="7.96" height="8.52" style="fill:none;stroke:#263238;stroke-miterlimit:10"></rect><rect x="155.63" y="251.3" width="7.96" height="8.52" style="fill:none;stroke:#263238;stroke-miterlimit:10"></rect><rect x="120.61" y="264.81" width="7.96" height="8.52" style="fill:none;stroke:#263238;stroke-miterlimit:10"></rect><rect x="132.28" y="264.81" width="7.96" height="8.52" style="fill:none;stroke:#263238;stroke-miterlimit:10"></rect><rect x="143.95" y="264.81" width="7.96" height="8.52" style="fill:none;stroke:#263238;stroke-miterlimit:10"></rect><rect x="155.63" y="264.81" width="7.96" height="8.52" style="fill:none;stroke:#263238;stroke-miterlimit:10"></rect><rect x="120.61" y="278.31" width="7.96" height="8.52" style="fill:none;stroke:#263238;stroke-miterlimit:10"></rect><rect x="132.28" y="278.31" width="7.96" height="8.52" style="fill:none;stroke:#263238;stroke-miterlimit:10"></rect><rect x="143.95" y="278.31" width="7.96" height="8.52" style="fill:none;stroke:#263238;stroke-miterlimit:10"></rect><rect x="155.63" y="278.31" width="7.96" height="8.52" style="fill:none;stroke:#263238;stroke-miterlimit:10"></rect><rect x="120.61" y="291.81" width="7.96" height="8.52" style="fill:none;stroke:#263238;stroke-miterlimit:10"></rect><rect x="132.28" y="291.81" width="7.96" height="8.52" style="fill:none;stroke:#263238;stroke-miterlimit:10"></rect><rect x="143.95" y="291.81" width="7.96" height="8.52" style="fill:none;stroke:#263238;stroke-miterlimit:10"></rect><rect x="155.63" y="291.81" width="7.96" height="8.52" style="fill:none;stroke:#263238;stroke-miterlimit:10"></rect><rect x="120.61" y="305.32" width="7.96" height="8.52" style="fill:none;stroke:#263238;stroke-miterlimit:10"></rect><rect x="132.28" y="305.32" width="7.96" height="8.52" style="fill:none;stroke:#263238;stroke-miterlimit:10"></rect><rect x="143.95" y="305.32" width="7.96" height="8.52" style="fill:none;stroke:#263238;stroke-miterlimit:10"></rect><rect x="155.63" y="305.32" width="7.96" height="8.52" style="fill:none;stroke:#263238;stroke-miterlimit:10"></rect><rect x="120.61" y="318.82" width="7.96" height="8.52" style="fill:none;stroke:#263238;stroke-miterlimit:10"></rect><rect x="132.28" y="318.82" width="7.96" height="8.52" style="fill:none;stroke:#263238;stroke-miterlimit:10"></rect><rect x="143.95" y="318.82" width="7.96" height="8.52" style="fill:none;stroke:#263238;stroke-miterlimit:10"></rect><rect x="155.63" y="318.82" width="7.96" height="8.52" style="fill:none;stroke:#263238;stroke-miterlimit:10"></rect><rect x="120.61" y="332.33" width="7.96" height="8.52" style="fill:none;stroke:#263238;stroke-miterlimit:10"></rect><rect x="132.28" y="332.33" width="7.96" height="8.52" style="fill:none;stroke:#263238;stroke-miterlimit:10"></rect><rect x="143.95" y="332.33" width="7.96" height="8.52" style="fill:none;stroke:#263238;stroke-miterlimit:10"></rect><rect x="155.63" y="332.33" width="7.96" height="8.52" style="fill:none;stroke:#263238;stroke-miterlimit:10"></rect><rect x="120.61" y="345.83" width="7.96" height="8.52" style="fill:none;stroke:#263238;stroke-miterlimit:10"></rect><rect x="132.28" y="345.83" width="7.96" height="8.52" style="fill:none;stroke:#263238;stroke-miterlimit:10"></rect><rect x="143.95" y="345.83" width="7.96" height="8.52" style="fill:none;stroke:#263238;stroke-miterlimit:10"></rect><rect x="155.63" y="345.83" width="7.96" height="8.52" style="fill:none;stroke:#263238;stroke-miterlimit:10"></rect><rect x="166.2" y="251.3" width="7.96" height="8.52" style="fill:none;stroke:#263238;stroke-miterlimit:10"></rect><rect x="177.87" y="251.3" width="7.96" height="8.52" style="fill:none;stroke:#263238;stroke-miterlimit:10"></rect><rect x="189.54" y="251.3" width="7.96" height="8.52" style="fill:none;stroke:#263238;stroke-miterlimit:10"></rect><rect x="201.21" y="251.3" width="7.96" height="8.52" style="fill:none;stroke:#263238;stroke-miterlimit:10"></rect><rect x="166.2" y="264.81" width="7.96" height="8.52" style="fill:none;stroke:#263238;stroke-miterlimit:10"></rect><rect x="177.87" y="264.81" width="7.96" height="8.52" style="fill:none;stroke:#263238;stroke-miterlimit:10"></rect><rect x="189.54" y="264.81" width="7.96" height="8.52" style="fill:none;stroke:#263238;stroke-miterlimit:10"></rect><rect x="201.21" y="264.81" width="7.96" height="8.52" style="fill:none;stroke:#263238;stroke-miterlimit:10"></rect><rect x="166.2" y="278.31" width="7.96" height="8.52" style="fill:none;stroke:#263238;stroke-miterlimit:10"></rect><rect x="177.87" y="278.31" width="7.96" height="8.52" style="fill:none;stroke:#263238;stroke-miterlimit:10"></rect><rect x="189.54" y="278.31" width="7.96" height="8.52" style="fill:none;stroke:#263238;stroke-miterlimit:10"></rect><rect x="201.21" y="278.31" width="7.96" height="8.52" style="fill:none;stroke:#263238;stroke-miterlimit:10"></rect><rect x="166.2" y="291.81" width="7.96" height="8.52" style="fill:none;stroke:#263238;stroke-miterlimit:10"></rect><rect x="177.87" y="291.81" width="7.96" height="8.52" style="fill:none;stroke:#263238;stroke-miterlimit:10"></rect><rect x="189.54" y="291.81" width="7.96" height="8.52" style="fill:none;stroke:#263238;stroke-miterlimit:10"></rect><rect x="201.21" y="291.81" width="7.96" height="8.52" style="fill:none;stroke:#263238;stroke-miterlimit:10"></rect><rect x="166.2" y="305.32" width="7.96" height="8.52" style="fill:none;stroke:#263238;stroke-miterlimit:10"></rect><rect x="177.87" y="305.32" width="7.96" height="8.52" style="fill:none;stroke:#263238;stroke-miterlimit:10"></rect><rect x="189.54" y="305.32" width="7.96" height="8.52" style="fill:none;stroke:#263238;stroke-miterlimit:10"></rect><rect x="201.21" y="305.32" width="7.96" height="8.52" style="fill:none;stroke:#263238;stroke-miterlimit:10"></rect><rect x="166.2" y="318.82" width="7.96" height="8.52" style="fill:none;stroke:#263238;stroke-miterlimit:10"></rect><rect x="177.87" y="318.82" width="7.96" height="8.52" style="fill:none;stroke:#263238;stroke-miterlimit:10"></rect><rect x="189.54" y="318.82" width="7.96" height="8.52" style="fill:none;stroke:#263238;stroke-miterlimit:10"></rect><rect x="201.21" y="318.82" width="7.96" height="8.52" style="fill:none;stroke:#263238;stroke-miterlimit:10"></rect><rect x="166.2" y="332.33" width="7.96" height="8.52" style="fill:none;stroke:#263238;stroke-miterlimit:10"></rect><rect x="177.87" y="332.33" width="7.96" height="8.52" style="fill:none;stroke:#263238;stroke-miterlimit:10"></rect><rect x="189.54" y="332.33" width="7.96" height="8.52" style="fill:none;stroke:#263238;stroke-miterlimit:10"></rect><rect x="201.21" y="332.33" width="7.96" height="8.52" style="fill:none;stroke:#263238;stroke-miterlimit:10"></rect><rect x="166.2" y="345.83" width="7.96" height="8.52" style="fill:none;stroke:#263238;stroke-miterlimit:10"></rect><rect x="177.87" y="345.83" width="7.96" height="8.52" style="fill:none;stroke:#263238;stroke-miterlimit:10"></rect><rect x="189.54" y="345.83" width="7.96" height="8.52" style="fill:none;stroke:#263238;stroke-miterlimit:10"></rect><rect x="201.21" y="345.83" width="7.96" height="8.52" style="fill:none;stroke:#263238;stroke-miterlimit:10"></rect><rect x="74.39" y="251.3" width="7.96" height="8.52" style="fill:none;stroke:#263238;stroke-miterlimit:10"></rect><rect x="86.06" y="251.3" width="7.96" height="8.52" style="fill:none;stroke:#263238;stroke-miterlimit:10"></rect><rect x="97.73" y="251.3" width="7.96" height="8.52" style="fill:none;stroke:#263238;stroke-miterlimit:10"></rect><rect x="109.4" y="251.3" width="7.96" height="8.52" style="fill:none;stroke:#263238;stroke-miterlimit:10"></rect><rect x="74.39" y="264.81" width="7.96" height="8.52" style="fill:none;stroke:#263238;stroke-miterlimit:10"></rect><rect x="86.06" y="264.81" width="7.96" height="8.52" style="fill:none;stroke:#263238;stroke-miterlimit:10"></rect><rect x="97.73" y="264.81" width="7.96" height="8.52" style="fill:none;stroke:#263238;stroke-miterlimit:10"></rect><rect x="109.4" y="264.81" width="7.96" height="8.52" style="fill:none;stroke:#263238;stroke-miterlimit:10"></rect><rect x="74.39" y="278.31" width="7.96" height="8.52" style="fill:none;stroke:#263238;stroke-miterlimit:10"></rect><rect x="86.06" y="278.31" width="7.96" height="8.52" style="fill:none;stroke:#263238;stroke-miterlimit:10"></rect><rect x="97.73" y="278.31" width="7.96" height="8.52" style="fill:none;stroke:#263238;stroke-miterlimit:10"></rect><rect x="109.4" y="278.31" width="7.96" height="8.52" style="fill:none;stroke:#263238;stroke-miterlimit:10"></rect><rect x="74.39" y="291.81" width="7.96" height="8.52" style="fill:none;stroke:#263238;stroke-miterlimit:10"></rect><rect x="86.06" y="291.81" width="7.96" height="8.52" style="fill:none;stroke:#263238;stroke-miterlimit:10"></rect><rect x="97.73" y="291.81" width="7.96" height="8.52" style="fill:none;stroke:#263238;stroke-miterlimit:10"></rect><rect x="109.4" y="291.81" width="7.96" height="8.52" style="fill:none;stroke:#263238;stroke-miterlimit:10"></rect><rect x="74.39" y="305.32" width="7.96" height="8.52" style="fill:none;stroke:#263238;stroke-miterlimit:10"></rect><rect x="86.06" y="305.32" width="7.96" height="8.52" style="fill:none;stroke:#263238;stroke-miterlimit:10"></rect><rect x="97.73" y="305.32" width="7.96" height="8.52" style="fill:none;stroke:#263238;stroke-miterlimit:10"></rect><rect x="109.4" y="305.32" width="7.96" height="8.52" style="fill:none;stroke:#263238;stroke-miterlimit:10"></rect><rect x="74.39" y="318.82" width="7.96" height="8.52" style="fill:none;stroke:#263238;stroke-miterlimit:10"></rect><rect x="86.06" y="318.82" width="7.96" height="8.52" style="fill:none;stroke:#263238;stroke-miterlimit:10"></rect><rect x="97.73" y="318.82" width="7.96" height="8.52" style="fill:none;stroke:#263238;stroke-miterlimit:10"></rect><rect x="109.4" y="318.82" width="7.96" height="8.52" style="fill:none;stroke:#263238;stroke-miterlimit:10"></rect><rect x="74.39" y="332.33" width="7.96" height="8.52" style="fill:none;stroke:#263238;stroke-miterlimit:10"></rect><rect x="86.06" y="332.33" width="7.96" height="8.52" style="fill:none;stroke:#263238;stroke-miterlimit:10"></rect><rect x="97.73" y="332.33" width="7.96" height="8.52" style="fill:none;stroke:#263238;stroke-miterlimit:10"></rect><rect x="109.4" y="332.33" width="7.96" height="8.52" style="fill:none;stroke:#263238;stroke-miterlimit:10"></rect><rect x="74.39" y="345.83" width="7.96" height="8.52" style="fill:none;stroke:#263238;stroke-miterlimit:10"></rect><rect x="86.06" y="345.83" width="7.96" height="8.52" style="fill:none;stroke:#263238;stroke-miterlimit:10"></rect><rect x="97.73" y="345.83" width="7.96" height="8.52" style="fill:none;stroke:#263238;stroke-miterlimit:10"></rect><rect x="109.4" y="345.83" width="7.96" height="8.52" style="fill:none;stroke:#263238;stroke-miterlimit:10"></rect><rect x="335.08" y="224.83" width="7.96" height="8.52" style="fill:none;stroke:#263238;stroke-miterlimit:10"></rect><rect x="346.75" y="224.83" width="7.96" height="8.52" style="fill:none;stroke:#263238;stroke-miterlimit:10"></rect><rect x="358.42" y="224.83" width="7.96" height="8.52" style="fill:none;stroke:#263238;stroke-miterlimit:10"></rect><rect x="370.09" y="224.83" width="7.96" height="8.52" style="fill:none;stroke:#263238;stroke-miterlimit:10"></rect><rect x="335.08" y="238.34" width="7.96" height="8.52" style="fill:none;stroke:#263238;stroke-miterlimit:10"></rect><rect x="346.75" y="238.34" width="7.96" height="8.52" style="fill:none;stroke:#263238;stroke-miterlimit:10"></rect><rect x="358.42" y="238.34" width="7.96" height="8.52" style="fill:none;stroke:#263238;stroke-miterlimit:10"></rect><rect x="370.09" y="238.34" width="7.96" height="8.52" style="fill:none;stroke:#263238;stroke-miterlimit:10"></rect><rect x="335.08" y="251.84" width="7.96" height="8.52" style="fill:none;stroke:#263238;stroke-miterlimit:10"></rect><rect x="346.75" y="251.84" width="7.96" height="8.52" style="fill:none;stroke:#263238;stroke-miterlimit:10"></rect><rect x="358.42" y="251.84" width="7.96" height="8.52" style="fill:none;stroke:#263238;stroke-miterlimit:10"></rect><rect x="370.09" y="251.84" width="7.96" height="8.52" style="fill:none;stroke:#263238;stroke-miterlimit:10"></rect><rect x="335.08" y="265.34" width="7.96" height="8.52" style="fill:none;stroke:#263238;stroke-miterlimit:10"></rect><rect x="346.75" y="265.34" width="7.96" height="8.52" style="fill:none;stroke:#263238;stroke-miterlimit:10"></rect><rect x="358.42" y="265.34" width="7.96" height="8.52" style="fill:none;stroke:#263238;stroke-miterlimit:10"></rect><rect x="370.09" y="265.34" width="7.96" height="8.52" style="fill:none;stroke:#263238;stroke-miterlimit:10"></rect><rect x="335.08" y="278.85" width="7.96" height="8.52" style="fill:none;stroke:#263238;stroke-miterlimit:10"></rect><rect x="346.75" y="278.85" width="7.96" height="8.52" style="fill:none;stroke:#263238;stroke-miterlimit:10"></rect><rect x="358.42" y="278.85" width="7.96" height="8.52" style="fill:none;stroke:#263238;stroke-miterlimit:10"></rect><rect x="370.09" y="278.85" width="7.96" height="8.52" style="fill:none;stroke:#263238;stroke-miterlimit:10"></rect><rect x="335.08" y="292.35" width="7.96" height="8.52" style="fill:none;stroke:#263238;stroke-miterlimit:10"></rect><rect x="346.75" y="292.35" width="7.96" height="8.52" style="fill:none;stroke:#263238;stroke-miterlimit:10"></rect><rect x="358.42" y="292.35" width="7.96" height="8.52" style="fill:none;stroke:#263238;stroke-miterlimit:10"></rect><rect x="370.09" y="292.35" width="7.96" height="8.52" style="fill:none;stroke:#263238;stroke-miterlimit:10"></rect><rect x="335.08" y="305.86" width="7.96" height="8.52" style="fill:none;stroke:#263238;stroke-miterlimit:10"></rect><rect x="346.75" y="305.86" width="7.96" height="8.52" style="fill:none;stroke:#263238;stroke-miterlimit:10"></rect><rect x="358.42" y="305.86" width="7.96" height="8.52" style="fill:none;stroke:#263238;stroke-miterlimit:10"></rect><rect x="370.09" y="305.86" width="7.96" height="8.52" style="fill:none;stroke:#263238;stroke-miterlimit:10"></rect><rect x="335.08" y="319.36" width="7.96" height="8.52" style="fill:none;stroke:#263238;stroke-miterlimit:10"></rect><rect x="346.75" y="319.36" width="7.96" height="8.52" style="fill:none;stroke:#263238;stroke-miterlimit:10"></rect><rect x="358.42" y="319.36" width="7.96" height="8.52" style="fill:none;stroke:#263238;stroke-miterlimit:10"></rect><rect x="370.09" y="319.36" width="7.96" height="8.52" style="fill:none;stroke:#263238;stroke-miterlimit:10"></rect><line x1="246.08" y1="116.19" x2="246.08" y2="362.94" style="fill:none;stroke:#263238;stroke-miterlimit:10"></line><line x1="253.97" y1="116.19" x2="253.97" y2="362.94" style="fill:none;stroke:#263238;stroke-miterlimit:10"></line><line x1="261.86" y1="116.19" x2="261.86" y2="362.94" style="fill:none;stroke:#263238;stroke-miterlimit:10"></line><line x1="269.75" y1="116.19" x2="269.75" y2="362.94" style="fill:none;stroke:#263238;stroke-miterlimit:10"></line><line x1="277.65" y1="116.19" x2="277.65" y2="362.94" style="fill:none;stroke:#263238;stroke-miterlimit:10"></line><line x1="285.54" y1="116.19" x2="285.54" y2="362.94" style="fill:none;stroke:#263238;stroke-miterlimit:10"></line><line x1="293.43" y1="116.19" x2="293.43" y2="362.94" style="fill:none;stroke:#263238;stroke-miterlimit:10"></line><line x1="301.32" y1="116.19" x2="301.32" y2="362.94" style="fill:none;stroke:#263238;stroke-miterlimit:10"></line><rect x="79.73" y="358.64" width="141.5" height="7.98" style="fill:none;stroke:#263238;stroke-miterlimit:10"></rect><rect x="308.07" y="358.64" width="127.06" height="7.98" style="fill:none;stroke:#263238;stroke-miterlimit:10"></rect></g><g id="freepik--Trees--inject-41"><path d="M296.2,358.33s13.87,1.37,20.9,10c0,0,7.43-10,20.77-9.76a27,27,0,1,0-41.67-.19Z" style="fill:#1675E0"></path><path d="M296.2,358.33s13.87,1.37,20.9,10c0,0,7.43-10,20.77-9.76a27,27,0,1,0-41.67-.19Z" style="fill:#fff;opacity:0.5"></path><polygon points="316.64 316.28 316.18 385.81 318.52 385.81 316.64 316.28" style="fill:#263238"></polygon><path d="M317.35,365.68s4.68-8.43,13.11-11c0,0-8.9,2.1-13.35,9.36Z" style="fill:#263238"></path><path d="M317.35,341.8s4.68-8.43,13.11-11c0,0-8.9,2.1-13.35,9.36Z" style="fill:#263238"></path><path d="M317.35,353.74s4.68-8.43,13.11-11c0,0-8.9,2.1-13.35,9.36Z" style="fill:#263238"></path><path d="M316.65,347.89s-4.52-8.43-12.65-11c0,0,8.59,2.11,12.88,9.37Z" style="fill:#263238"></path><path d="M316.65,359.59s-4.52-8.43-12.65-11c0,0,8.59,2.11,12.88,9.36Z" style="fill:#263238"></path><path d="M361.53,353.06s16.53,1.63,24.91,11.88c0,0,8.85-11.87,24.75-11.63a32.13,32.13,0,1,0-49.66-.22Z" style="fill:#1675E0"></path><path d="M361.53,353.06s16.53,1.63,24.91,11.88c0,0,8.85-11.87,24.75-11.63a32.13,32.13,0,1,0-49.66-.22Z" style="fill:#fff;opacity:0.5"></path><polygon points="385.89 302.95 385.33 385.81 388.13 385.81 385.89 302.95" style="fill:#263238"></polygon><path d="M386.73,361.82s5.58-10.05,15.62-13.12c0,0-10.6,2.52-15.9,11.16Z" style="fill:#263238"></path><path d="M386.73,333.36s5.58-10.05,15.62-13.11c0,0-10.6,2.51-15.9,11.16Z" style="fill:#263238"></path><path d="M386.73,347.59s5.58-10,15.62-13.12c0,0-10.6,2.52-15.9,11.17Z" style="fill:#263238"></path><path d="M385.9,340.61s-5.38-10-15.07-13.11c0,0,10.23,2.51,15.34,11.16Z" style="fill:#263238"></path><path d="M385.9,354.56s-5.38-10-15.07-13.11c0,0,10.23,2.51,15.34,11.16Z" style="fill:#263238"></path><path d="M428.07,362.63s11.7,1.16,17.63,8.41a22.66,22.66,0,0,1,17.52-8.23,22.75,22.75,0,1,0-35.16-.16Z" style="fill:#1675E0"></path><path d="M428.07,362.63s11.7,1.16,17.63,8.41a22.66,22.66,0,0,1,17.52-8.23,22.75,22.75,0,1,0-35.16-.16Z" style="fill:#fff;opacity:0.5"></path><polygon points="445.31 327.16 444.92 385.81 446.89 385.81 445.31 327.16" style="fill:#263238"></polygon><path d="M445.91,368.83s3.94-7.11,11-9.28c0,0-7.5,1.77-11.25,7.9Z" style="fill:#263238"></path><path d="M445.91,348.68s3.94-7.11,11-9.28c0,0-7.5,1.78-11.25,7.9Z" style="fill:#263238"></path><path d="M445.91,358.76s3.94-7.11,11-9.29c0,0-7.5,1.78-11.25,7.9Z" style="fill:#263238"></path><path d="M445.32,353.82s-3.81-7.11-10.67-9.28c0,0,7.24,1.77,10.86,7.9Z" style="fill:#263238"></path><path d="M445.32,363.69s-3.81-7.11-10.67-9.28c0,0,7.24,1.78,10.86,7.9Z" style="fill:#263238"></path><path d="M54.67,358.33s13.87,1.37,20.9,10c0,0,7.43-10,20.77-9.76a27,27,0,1,0-41.67-.19Z" style="fill:#1675E0"></path><path d="M54.67,358.33s13.87,1.37,20.9,10c0,0,7.43-10,20.77-9.76a27,27,0,1,0-41.67-.19Z" style="fill:#fff;opacity:0.5"></path><polygon points="75.11 316.28 74.64 385.81 76.98 385.81 75.11 316.28" style="fill:#263238"></polygon><path d="M75.81,365.68s4.69-8.43,13.11-11c0,0-8.89,2.1-13.34,9.36Z" style="fill:#263238"></path><path d="M75.81,341.8s4.69-8.43,13.11-11c0,0-8.89,2.1-13.34,9.36Z" style="fill:#263238"></path><path d="M75.81,353.74s4.69-8.43,13.11-11c0,0-8.89,2.1-13.34,9.36Z" style="fill:#263238"></path><path d="M75.12,347.89s-4.52-8.43-12.65-11c0,0,8.58,2.11,12.88,9.37Z" style="fill:#263238"></path><path d="M75.12,359.59s-4.52-8.43-12.65-11c0,0,8.58,2.11,12.88,9.36Z" style="fill:#263238"></path><path d="M120,353.06s16.53,1.63,24.91,11.88c0,0,8.85-11.87,24.75-11.63a32.13,32.13,0,1,0-49.67-.22Z" style="fill:#1675E0"></path><path d="M120,353.06s16.53,1.63,24.91,11.88c0,0,8.85-11.87,24.75-11.63a32.13,32.13,0,1,0-49.67-.22Z" style="fill:#fff;opacity:0.5"></path><polygon points="144.36 302.95 143.8 385.81 146.59 385.81 144.36 302.95" style="fill:#263238"></polygon><path d="M145.2,361.82s5.58-10.05,15.62-13.12c0,0-10.6,2.52-15.9,11.16Z" style="fill:#263238"></path><path d="M145.2,333.36s5.58-10.05,15.62-13.11c0,0-10.6,2.51-15.9,11.16Z" style="fill:#263238"></path><path d="M145.2,347.59s5.58-10,15.62-13.12c0,0-10.6,2.52-15.9,11.17Z" style="fill:#263238"></path><path d="M144.37,340.61s-5.38-10-15.08-13.11c0,0,10.23,2.51,15.35,11.16Z" style="fill:#263238"></path><path d="M144.37,354.56s-5.38-10-15.08-13.11c0,0,10.23,2.51,15.35,11.16Z" style="fill:#263238"></path><path d="M186.54,362.63s11.7,1.16,17.63,8.41a22.64,22.64,0,0,1,17.52-8.23,22.75,22.75,0,1,0-35.16-.16Z" style="fill:#1675E0"></path><path d="M186.54,362.63s11.7,1.16,17.63,8.41a22.64,22.64,0,0,1,17.52-8.23,22.75,22.75,0,1,0-35.16-.16Z" style="fill:#fff;opacity:0.5"></path><polygon points="203.78 327.16 203.38 385.81 205.36 385.81 203.78 327.16" style="fill:#263238"></polygon><path d="M204.37,368.83s3.95-7.11,11.06-9.28c0,0-7.5,1.77-11.25,7.9Z" style="fill:#263238"></path><path d="M204.37,348.68s3.95-7.11,11.06-9.28c0,0-7.5,1.78-11.25,7.9Z" style="fill:#263238"></path><path d="M204.37,358.76s3.95-7.11,11.06-9.29c0,0-7.5,1.78-11.25,7.9Z" style="fill:#263238"></path><path d="M203.79,353.82s-3.81-7.11-10.67-9.28c0,0,7.24,1.77,10.86,7.9Z" style="fill:#263238"></path><path d="M203.79,363.69s-3.81-7.11-10.67-9.28c0,0,7.24,1.78,10.86,7.9Z" style="fill:#263238"></path></g><g id="freepik--Car--inject-41"><circle cx="336.52" cy="359.03" r="26.76" transform="translate(-72.76 85.83) rotate(-13.13)" style="fill:#263238;stroke:#263238;stroke-miterlimit:10"></circle><circle cx="149.1" cy="359.03" r="26.76" transform="translate(-210.2 210.59) rotate(-45)" style="fill:#263238;stroke:#263238;stroke-miterlimit:10"></circle><path d="M318.47,308.32s-7.1-4.44-39.52-15.1S225.65,279,193.68,279.9s-75.06,12.88-83.05,16-11.55,4-9.77,6.21,11.54,10.22,10.21,13.77S88,339,86.64,342.07s4.45,13.77,5.33,16.44,5.78,3.55,9.77,4,288.24,0,288.24,0,4-4.88,3.11-11.1-1.84-14.42-5.85-19.67c-3.24-4.26-6.59-8.75-15-9.64C366.91,321.53,319.81,308.77,318.47,308.32Z" style="fill:#1675E0"></path><g style="clip-path:url(#freepik--clip-path--inject-41)"><path d="M318.47,308.32s-7.1-4.44-39.52-15.1S225.65,279,193.68,279.9s-75.06,12.88-83.05,16-11.55,4-9.77,6.21,11.54,10.22,10.21,13.77S88,339,86.64,342.07s4.45,13.77,5.33,16.44,5.78,3.55,9.77,4,288.24,0,288.24,0,4-4.88,3.11-11.1-1.84-14.42-5.85-19.67c-3.24-4.26-6.59-8.75-15-9.64C366.91,321.53,319.81,308.77,318.47,308.32Z" style="fill:#1675E0"></path><g style="clip-path:url(#freepik--clip-path-2--inject-41)"><path d="M318.47,308.32s-7.1-4.44-39.52-15.1S225.65,279,193.68,279.9s-75.06,12.88-83.05,16-11.55,4-9.77,6.21,11.54,10.22,10.21,13.77S88,339,86.64,342.07s4.45,13.77,5.33,16.44,5.78,3.55,9.77,4,288.24,0,288.24,0,4-4.88,3.11-11.1-1.84-14.42-5.85-19.67c-3.24-4.26-6.59-8.75-15-9.64C366.91,321.53,319.81,308.77,318.47,308.32Z" style="opacity:0.15"></path></g></g><path d="M318.47,308.32s-7.1-4.44-39.52-15.1S225.65,279,193.68,279.9s-75.06,12.88-83.05,16-11.55,4-9.77,6.21,11.54,10.22,10.21,13.77S88,339,86.64,342.07s4.45,13.77,5.33,16.44,5.78,3.55,9.77,4,288.24,0,288.24,0,4-4.88,3.11-11.1-1.84-14.42-5.85-19.67c-3.24-4.26-6.59-8.75-15-9.64C366.91,321.53,319.81,308.77,318.47,308.32Z" style="fill:none;stroke:#263238;stroke-miterlimit:10"></path><rect x="373.1" y="339.41" width="16.88" height="4.44" style="fill:#263238;stroke:#263238;stroke-miterlimit:10"></rect><path d="M365,331.73h2.69a8.6,8.6,0,0,1,8,5.4l2.71,6.72h-8.8Z" style="fill:#fff;stroke:#263238;stroke-miterlimit:10"></path><path d="M389.77,336.27c-.1.28-.19.56-.27.86l-1.81,6.72h4.22A40.69,40.69,0,0,0,389.77,336.27Z" style="fill:#fff;stroke:#263238;stroke-miterlimit:10"></path><path d="M318.47,308.32s-7.1-4.44-39.52-15.1c-7.41-2.43-14.2-4.49-20.67-6.22H235.42l-4.88,1.34,65.73,20Z" style="fill:#263238;stroke:#263238;stroke-miterlimit:10"></path><path d="M79.1,301.2v30s18.26-15,16-19.27S79.1,301.2,79.1,301.2Z" style="fill:#8f8f8f;stroke:#263238;stroke-miterlimit:10"></path><path d="M296.27,308.32s-7.11-4.44-39.53-15.1S203.45,279,171.47,279.9s-75.06,12.88-83,16-11.55,4-9.77,6.21,11.55,10.22,10.21,13.77S65.77,339,64.44,342.07s4.44,13.77,5.33,16.44,5.77,3.55,9.77,4,288.23,0,288.23,0,4-4.88,3.11-11.1S369,337,365,331.73c-3.24-4.26-6.6-8.75-15-9.64C344.71,321.53,297.6,308.77,296.27,308.32Z" style="fill:#1675E0"></path><g style="clip-path:url(#freepik--clip-path-3--inject-41)"><path d="M365,331.73c-3.24-4.26-6.6-8.75-15-9.64-1.4-.15-5.73-1.15-11.36-2.55-26.84-.27-41.79,10.58-81.89,14.26-52.22,4.78-88.35-8.27-131.87-13.5-18.15-2.17-32.8.5-43.73,4.34-6.85,6.92-15.88,15.47-16.72,17.43-1.33,3.11,4.44,13.77,5.33,16.44s5.77,3.55,9.77,4,288.23,0,288.23,0,4-4.88,3.11-11.1S369,337,365,331.73Z" style="opacity:0.15"></path></g><path d="M296.27,308.32s-7.11-4.44-39.53-15.1S203.45,279,171.47,279.9s-75.06,12.88-83,16-11.55,4-9.77,6.21,11.55,10.22,10.21,13.77S65.77,339,64.44,342.07s4.44,13.77,5.33,16.44,5.77,3.55,9.77,4,288.23,0,288.23,0,4-4.88,3.11-11.1S369,337,365,331.73c-3.24-4.26-6.6-8.75-15-9.64C344.71,321.53,297.6,308.77,296.27,308.32Z" style="fill:none;stroke:#263238;stroke-miterlimit:10"></path><path d="M128.31,291.94l17.77,18.77H276.7v-4.26s-26.77-10.51-55-16-35.28-5-48-4.76S128.31,291.94,128.31,291.94Z" style="fill:#8f8f8f"></path><g style="clip-path:url(#freepik--clip-path-4--inject-41)"><path d="M192,302.5a82.72,82.72,0,0,0-49.8,4.11l3.88,4.1H276.7v-4.26s-4.33-1.7-11.35-4.09C250.66,308,221.52,309,192,302.5Z" style="fill:#263238;stroke:#263238;stroke-miterlimit:10"></path></g><path d="M128.31,291.94l17.77,18.77H276.7v-4.26s-26.77-10.51-55-16-35.28-5-48-4.76S128.31,291.94,128.31,291.94Z" style="fill:none;stroke:#263238;stroke-miterlimit:10;stroke-width:4px"></path><line x1="187.37" y1="313.21" x2="187.37" y2="354" style="fill:none;stroke:#263238;stroke-miterlimit:10"></line><circle cx="118.9" cy="359.03" r="26.76" transform="translate(-78.14 36.21) rotate(-13.07)" style="fill:#263238;stroke:#263238;stroke-miterlimit:10"></circle><path d="M118.9,339.72A19.31,19.31,0,1,0,138.21,359,19.32,19.32,0,0,0,118.9,339.72Zm13,15.44-11.25,2.11,3.19-10.85A13.61,13.61,0,0,1,131.88,355.16Zm-12,2.9V360h-1.93v-1.94Zm-4.83-12,2.11,11.25-10.86-3.2A13.57,13.57,0,0,1,115,346.06Zm-9.11,16.84,11.25-2.11L114,371.64A13.52,13.52,0,0,1,105.93,362.9Zm16.84,9.1-2.11-11.24L131.52,364A13.57,13.57,0,0,1,122.77,372Z" style="fill:#fff;stroke:#263238;stroke-miterlimit:10"></path><path d="M124.89,359a6,6,0,1,0-6,6A6,6,0,0,0,124.89,359Z" style="fill:#fff;stroke:#263238;stroke-miterlimit:10"></path><circle cx="307.21" cy="359.03" r="26.76" transform="translate(-163.89 322.39) rotate(-45)" style="fill:#263238;stroke:#263238;stroke-miterlimit:10"></circle><path d="M307.21,339.72A19.31,19.31,0,1,0,326.52,359,19.32,19.32,0,0,0,307.21,339.72Zm13,15.44-11.24,2.11,3.19-10.85A13.58,13.58,0,0,1,320.18,355.16Zm-12,2.9V360h-1.94v-1.94Zm-4.84-12,2.11,11.25-10.85-3.2A13.55,13.55,0,0,1,303.34,346.06Zm-9.1,16.84,11.25-2.11-3.2,10.85A13.53,13.53,0,0,1,294.24,362.9Zm16.84,9.1L309,360.76,319.82,364A13.55,13.55,0,0,1,311.08,372Z" style="fill:#fff;stroke:#263238;stroke-miterlimit:10"></path><path d="M313.2,359a6,6,0,1,0-6,6A6,6,0,0,0,313.2,359Z" style="fill:#fff;stroke:#263238;stroke-miterlimit:10"></path><path d="M365,331.73s-19.92-1-20.81,0,6.66,9,9.33,10.79c2.11,1.41,12.05,1.14,16.07,1C368.78,339.22,367.47,334.93,365,331.73Z" style="fill:#fff;stroke:#263238;stroke-miterlimit:10"></path><path d="M190.64,285.82c-1.31-.09-2.54-.15-3.74-.19l-3.35,25h8.88Z" style="fill:#263238;stroke:#263238;stroke-miterlimit:10"></path></g><g id="freepik--Character--inject-41"><path d="M223.7,377.9a33.62,33.62,0,0,1-5,2.65c-2.14.82-3.56,1.32-3.15,2.65s2.74,2.44,5.7,3.05,8.24-.71,9.67-1.12,1.63-2.75.61-4.07S225.43,377.19,223.7,377.9Z" style="fill:#263238;stroke:#263238;stroke-linecap:round;stroke-linejoin:round"></path><path d="M224.62,385.54c-2.45,0-6.52-.92-6.52-1.83s1-1.63-.2-1.94-2,1.36-2.2,1.75c.66,1.18,2.85,2.17,5.56,2.73,3,.61,8.24-.71,9.67-1.12A1.67,1.67,0,0,0,232,384,24.72,24.72,0,0,1,224.62,385.54Z" style="fill:#fff;stroke:#263238;stroke-linecap:round;stroke-linejoin:round"></path><path d="M236.22,312.54l.61,2a3.27,3.27,0,0,0-1.22,2.54,4.9,4.9,0,0,0,1.73,2.85" style="fill:none;stroke:#263238;stroke-linecap:round;stroke-linejoin:round"></path><path d="M230,308.57a40.14,40.14,0,0,0-1.52,5.09v2.75c0,.51-2,11.3-2.45,17.92s-.71,14.35-1.22,16.09.1,2.64.2,5.09.21,14.76.21,14.76-.51,3.26-.61,4.07-1.12,1.12-1.43,1.63a17.65,17.65,0,0,0-.81,2.54,9.2,9.2,0,0,1,4.17,2.45c1.43,1.73,5.29,3.87,5.8,3.76s.82-1.52,1.63-3.46.72-2.95,1.12-3.76,1-2.14,1.94-8.25,1.73-15.17,2.24-16.39,3.15-5.8,3.15-5.8a103.09,103.09,0,0,0,5.91-13.75,83,83,0,0,0,3.36-13.44,87.23,87.23,0,0,0,.91-9.47v-1s-3.76,1.42-10.48.71S230,308.57,230,308.57Z" style="fill:#fff;stroke:#263238;stroke-linecap:round;stroke-linejoin:round"></path><path d="M244.06,314.48s-4.58,2.44-5.29,3.66-1.63,6.42-3.67,12.83-3.87,11.3-5.6,16.7a40.35,40.35,0,0,0-2.13,9.57c-.62,4-2,14.56-2,14.56" style="fill:none;stroke:#263238;stroke-linecap:round;stroke-linejoin:round"></path><path d="M232,382.89s2.24-.81,2.24-5.39-.82-7.84,0-12.22,2.85-11.51,4.07-13.64,2.65-4.89,2.65-4.89" style="fill:none;stroke:#263238;stroke-linecap:round;stroke-linejoin:round"></path><path d="M239.79,345.22s3.56,2.45,4.27,1.53a37.41,37.41,0,0,0,2.75-6.11c.92-2.34,1.32-3.46,1.32-3.46s1-.1,1.12-1,.31-2.65.31-2.65a17.87,17.87,0,0,1-3.26-.4c-1.93-.41-2.65-.31-3.05.61a14,14,0,0,0-.82,1.93c-.61,1.63-3,7.13-3.05,7.94S239.18,344.61,239.79,345.22Z" style="fill:#fff;stroke:#263238;stroke-linecap:round;stroke-linejoin:round"></path><path d="M248.13,337.18a32.85,32.85,0,0,1-4.17-.51c-1.12-.3-.51-1.73-.51-1.73" style="fill:#1675E0;stroke:#263238;stroke-linecap:round;stroke-linejoin:round"></path><path d="M246.71,333.11s2.65-8.55,3-10.29l.41-1.73" style="fill:none;stroke:#263238;stroke-linecap:round;stroke-linejoin:round"></path><path d="M247.52,312.13s-.71,3.57,0,5.5a11,11,0,0,0,3.57,4.18" style="fill:none;stroke:#263238;stroke-linecap:round;stroke-linejoin:round"></path><path d="M232.76,313.66s5.3,1.53,8.45.41" style="fill:none;stroke:#263238;stroke-linecap:round;stroke-linejoin:round"></path><path d="M242.43,273.65s-6.92,1.73-9,2.14-3.15.41-3.46,1.32a79.17,79.17,0,0,1-7.74,11.81c-2.34,2.55-2.54,5-1.83,6.31s1.53,1.94,4.58,1.12a10.27,10.27,0,0,0,5-3.36s.72,7.64-.3,10.69-1.43,5.5-.72,6a21.37,21.37,0,0,0,10.08,2.65c5.6.2,12-.31,13-1.33a2.71,2.71,0,0,0,1-2.34c0-.71-.4-5.49.82-9.26s4.68-13.44,4.78-17.11-1.32-4.17-4.07-5.29-7.13-3.05-8.14-3.26A30.65,30.65,0,0,0,242.43,273.65Z" style="fill:#263238;stroke:#263238;stroke-linecap:round;stroke-linejoin:round"></path><path d="M241,271.82a16.07,16.07,0,0,0-2.34,1.83c-.11.31-3.67,6-3.26,6s4.89-2.24,4.89-2.24,2.23-3.36,2-4.69A1,1,0,0,0,241,271.82Z" style="fill:#fff;stroke:#263238;stroke-linecap:round;stroke-linejoin:round"></path><path d="M240.14,270.69a27.47,27.47,0,0,1-.51,6.72c-.71,2.75-1.22,4.58-.2,4.89s4.38-4.69,5.29-6.11a9.76,9.76,0,0,0,1.22-2.65l.72-7.94S242.58,270,240.14,270.69Z" style="fill:#fff;stroke:#263238;stroke-linecap:round;stroke-linejoin:round"></path><path d="M236.48,251.75s-1,8.66-1,11.92,2.14,7.43,3.15,7.83,3.57.82,4.59.11,3.86-5.09,3.86-5.09a59.89,59.89,0,0,0,2.14-9.37c.31-3.46-.61-5.09-3.77-6.11S238.1,250,236.48,251.75Z" style="fill:#fff;stroke:#263238;stroke-linecap:round;stroke-linejoin:round"></path><path d="M238.92,259.19s-.92,5-.51,5.09a14,14,0,0,0,1.83.1" style="fill:none;stroke:#263238;stroke-linecap:round;stroke-linejoin:round"></path><path d="M238.82,266.11s2.75.61,4.17-.71" style="fill:none;stroke:#263238;stroke-linecap:round;stroke-linejoin:round"></path><path d="M242.68,259.28c0,.42-.25.74-.48.72s-.37-.39-.33-.8.26-.75.49-.72S242.73,258.86,242.68,259.28Z" style="fill:#263238"></path><path d="M238.41,258.87c0,.42-.26.74-.48.72s-.37-.38-.33-.8.26-.74.48-.72S238.45,258.45,238.41,258.87Z" style="fill:#263238"></path><path d="M236.48,257.35a1.58,1.58,0,0,1,2.44-.1" style="fill:none;stroke:#263238;stroke-linecap:round;stroke-linejoin:round"></path><path d="M240.85,257.15s1.94-1.53,3,.1" style="fill:none;stroke:#263238;stroke-linecap:round;stroke-linejoin:round"></path><path d="M234.85,250.33a1.51,1.51,0,0,0,0,.25,3.29,3.29,0,0,0,2.21,2.19c2.24.92,7.53-.2,9.36.41s1,2.34-.1,2.95-1.32.92-.81,1.63,1.73,1.43,1.32,2.24-.61,1.63.1,1.73,1.22.1,1.53-.3,2.34-4.79,2.34-7.33-1.22-3.67-4.07-4.79-8.76-1.83-10.49-.81A2.46,2.46,0,0,0,234.85,250.33Z" style="fill:#263238;stroke:#263238;stroke-linecap:round;stroke-linejoin:round"></path><path d="M246.66,265.37a1.63,1.63,0,0,0,2,.23c1.12-.71,1.63-3.26.92-4.58s-2.14,1.22-2.14,1.22" style="fill:#fff;stroke:#263238;stroke-linecap:round;stroke-linejoin:round"></path><path d="M242.43,273.65s-.2,9.06.41,8,5.7-7.73,5.7-7.73l-1.22-3.57Z" style="fill:#fff;stroke:#263238;stroke-linecap:round;stroke-linejoin:round"></path><path d="M251.39,283.63l-3.46,10.79,6.31,8s.31.61.82-.1.91-.71,1.73-4.58,2-13.24,1.93-15.48-.51-3.36-2.24-3.66" style="fill:#263238;stroke:#263238;stroke-linecap:round;stroke-linejoin:round"></path><path d="M232.05,296.15s15.78,6,17.92,6.11,2.64-1.32,1.73-4-3.67-4.18-6-4.89a17,17,0,0,0-8.14.1C235.2,294.11,232.05,295.34,232.05,296.15Z" style="fill:#fff;stroke:#263238;stroke-linecap:round;stroke-linejoin:round"></path><path d="M245.18,293.3s3.77,8.14,4,8.86,4.08,1.22,5.3,1.12.71-1.94-.51-4.58-3.16-5-4.58-5.4A13.36,13.36,0,0,0,245.18,293.3Z" style="fill:#fff;stroke:#263238;stroke-linecap:round;stroke-linejoin:round"></path><path d="M224.11,290.45a15.68,15.68,0,0,0-3.87.81c-1.43.61-1.73,4.89-1,6.42s2.95,1.52,4.48,1.42a3,3,0,0,0,2.24-1.12l1.12-7.53Z" style="fill:#263238;stroke:#263238;stroke-linecap:round;stroke-linejoin:round"></path><path d="M227.06,290.45s11.5,0,14.35-.1,3.57.61,4.18,1.63.81,1.42.81,1.42a44.65,44.65,0,0,0-10.58,2.34c-4.69,1.84-8.76,3.46-10.19,3.46s-2-3.66-1.42-6.21A3.07,3.07,0,0,1,227.06,290.45Z" style="fill:#fff;stroke:#263238;stroke-linecap:round;stroke-linejoin:round"></path><path d="M223.8,289.74s4.89-.11,4.79.81-1,7.84-1.33,8.45-3.25.92-4.68.82-.92-4.69,0-6.83A26.73,26.73,0,0,0,223.8,289.74Z" style="fill:#fff;stroke:#263238;stroke-linecap:round;stroke-linejoin:round"></path><path d="M238.36,313s.82,1.22.51,1.53-1.83,1.73-1.73,2.64a2.52,2.52,0,0,0,.61,1.43" style="fill:none;stroke:#263238;stroke-linecap:round;stroke-linejoin:round"></path></g><g id="freepik--Floor--inject-41"><line x1="52.86" y1="385.81" x2="461.74" y2="385.81" style="fill:#fff;stroke:#263238;stroke-linecap:round;stroke-linejoin:round"></line></g></svg>