<svg id="Layer_1" data-name="Layer 1" xmlns="http://www.w3.org/2000/svg" viewBox="0 0 473.72 437.82"><defs><style>.cls-1,.cls-12{fill:#1675e0;}.cls-10,.cls-2,.cls-6{fill:#fff;}.cls-2{opacity:0.7;isolation:isolate;}.cls-3,.cls-8{fill:#263238;}.cls-4{fill:#cfcfcf;}.cls-12,.cls-13,.cls-14,.cls-4,.cls-5,.cls-6,.cls-7,.cls-8{stroke:#263238;}.cls-12,.cls-13,.cls-14,.cls-4,.cls-5,.cls-6,.cls-7,.cls-8,.cls-9{stroke-miterlimit:10;}.cls-5,.cls-9{fill:none;}.cls-7{fill:#878787;}.cls-9{stroke:#828282;}.cls-11{opacity:0.4;}.cls-13{fill:#737373;}.cls-14{fill:#454545;}</style></defs><g id="freepik--background-simple--inject-104"><path class="cls-1" d="M21.62,175.94S40.87,94.58,116.73,55s166.33-22.74,240-11.1,120.53,68,115.52,135.61-64.42,74-109.78,141.79-47.71,93-120.78,124.16-166.91-20.11-203-111S21.62,175.94,21.62,175.94Z" transform="translate(-16.61 -30.18)"/><path class="cls-2" d="M21.62,175.94S40.87,94.58,116.73,55s166.33-22.74,240-11.1,120.53,68,115.52,135.61-64.42,74-109.78,141.79-47.71,93-120.78,124.16-166.91-20.11-203-111S21.62,175.94,21.62,175.94Z" transform="translate(-16.61 -30.18)"/></g><g id="freepik--Floor--inject-104"><ellipse class="cls-3" cx="228.89" cy="422.32" rx="184.5" ry="15.5"/></g><g id="freepik--Plants--inject-104"><path class="cls-1" d="M122,354.16c3.89-1.4,10.45-7.93,10.46-7.93s-5.61-3-6-3.17c-4.4-1.68-13.89-2.35-17.19,1.76a6.24,6.24,0,0,0,1.19,8.74c.18.14.37.26.56.38C114.19,356,118.74,355.36,122,354.16Z" transform="translate(-16.61 -30.18)"/><path class="cls-1" d="M191.33,291.19c.1,0-3-5.62-3.25-5.95-2.74-3.83-10.28-9.62-15.3-8a6.24,6.24,0,0,0-3.83,7.95c.08.21.16.43.26.63,1.48,3.41,5.61,5.41,9,6.24C182.25,293,191.33,291.19,191.33,291.19Z" transform="translate(-16.61 -30.18)"/><path class="cls-1" d="M188.27,247.84c-4.19,3.2-3.76,12.7-2.18,17.14.13.39,2.95,6.14,3,6.07l.08-.08c.05,1.5.13,3.11.25,4.87.25,3.24.56,6.89,1.16,10.85a109.49,109.49,0,0,0,2.56,12.68A81.29,81.29,0,0,0,198,313c0,.05.06.1.08.15-1-1.13-4.07-4.22-4.33-4.43-3.65-3-12.46-6.56-16.88-3.69a6.24,6.24,0,0,0-1.58,8.68,5.34,5.34,0,0,0,.41.53c2.33,2.9,6.84,3.74,10.35,3.64,4-.12,11.68-3.92,12.29-4.22a112.32,112.32,0,0,0,7.35,12.77c1.58,2.39,3.24,4.75,4.94,7.1-.94-1-1.78-1.8-1.91-1.91-3.65-3-12.46-6.56-16.88-3.68a6.26,6.26,0,0,0-1.58,8.7c.13.17.26.35.4.51,2.34,2.9,6.84,3.74,10.36,3.63s10.21-3.21,12-4.06l2,2.68c3.19,4.28,6.38,8.53,9.39,12.79,1.06,1.5,2,3,3,4.54-.84-.85-1.54-1.56-1.66-1.65-3.66-3-12.46-6.56-16.88-3.69a6.26,6.26,0,0,0-1.58,8.7c.13.17.26.35.4.51,2.34,2.9,6.84,3.74,10.36,3.64s9.56-2.92,11.64-3.91c1,1.58,2,3.16,2.82,4.74.57,1.09,1.19,2.1,1.71,3.23l1.57,3.28c.93,2.13,1.89,4.31,2.74,6.41.61,1.45,1.15,2.85,1.71,4.25-1-1.51-3.13-4.42-3.34-4.64a24.12,24.12,0,0,0-10.47-6.31,7.42,7.42,0,0,0-1-.94,6.25,6.25,0,0,0-8.79.88,6.55,6.55,0,0,0-.39.53c-2.76,4.5,1.05,13.21,4.12,16.78.18.21,2.39,2.28,3.81,3.57-1-.63-1.86-1.25-2.85-1.88-1.94-1.27-3.91-2.48-6-3.78l-3.16-1.81c-1-.62-2.23-1.15-3.35-1.73-2.62-1.31-5.35-2.5-8.12-3.64,1.1-1.7,4.94-7.8,5.49-11.29s.28-8.05-2.3-10.73a6.24,6.24,0,0,0-8.81-.48,5.44,5.44,0,0,0-.48.48c-3.41,4-.95,13.21,1.53,17.21.16.25,2.26,2.91,3.45,4.36-1.68-.68-3.34-1.36-5.06-2-4.94-1.81-10-3.49-15.05-5.18-1.55-.52-3.08-1.06-4.62-1.59.4-.6,5.12-7.74,5.73-11.65.55-3.48.29-8-2.29-10.73a6.25,6.25,0,0,0-8.83-.46c-.16.14-.31.3-.46.46-3.41,4-1,13.21,1.53,17.21.18.3,3.22,4.14,4,5.08-3.39-1.17-6.75-2.37-10-3.68a113,113,0,0,1-12.88-6.09c.19-.28,5.14-7.72,5.78-11.72.55-3.48.28-8.05-2.3-10.73a6.24,6.24,0,0,0-8.81-.48,5.44,5.44,0,0,0-.48.48c-3.41,4-1,13.21,1.53,17.21.16.26,2.47,3.19,3.6,4.56l-.19.22a79.74,79.74,0,0,1-11.64-8.36c-2-1.7-3.85-3.43-5.59-5.16,1.06-1.29,5.86-7.24,6.83-10.78.93-3.39,1.17-8-1.1-10.92a6.24,6.24,0,0,0-8.72-1.41,4.07,4.07,0,0,0-.52.41c-3.83,3.62-2.4,13-.37,17.27.11.23,1.49,2.45,2.52,4.06-.77-.79-1.59-1.59-2.31-2.37-2.74-2.89-5.07-5.71-7.12-8.23-1.15-1.44-2.16-2.76-3.1-4,.39-1.82,1.85-9.14,1.09-12.66s-2.64-7.61-6-9.18a6.24,6.24,0,0,0-8.39,2.74,6.65,6.65,0,0,0-.27.61c-1.73,5,3.87,12.67,7.63,15.51.32.24,5.84,3.49,5.86,3.39v-.11c.87,1.22,1.82,2.52,2.89,3.92,2,2.56,4.27,5.45,7,8.41a112.73,112.73,0,0,0,9.12,9.17,81.42,81.42,0,0,0,11.56,8.69l.16.09c-1.5-.38-5.73-1.28-6.06-1.31-4.69-.47-14,1.4-16.11,6.23a6.24,6.24,0,0,0,3.46,8.12,4.83,4.83,0,0,0,.64.22c3.54,1.13,7.77-.66,10.64-2.69,3.24-2.28,7.58-9.71,7.92-10.3a109.55,109.55,0,0,0,13.18,6.6c2.63,1.13,5.32,2.18,8,3.2-1.3-.28-2.47-.52-2.64-.54-4.69-.46-14,1.4-16.11,6.24a6.23,6.23,0,0,0,3.45,8.11c.21.08.43.16.65.22,3.54,1.13,7.77-.65,10.64-2.68s6.74-8.31,7.73-10l3.13,1.15c5,1.8,10,3.58,14.88,5.48,1.72.67,3.38,1.39,5,2.11-1.16-.25-2.14-.45-2.3-.47-4.68-.46-14,1.4-16.11,6.24a6.24,6.24,0,0,0,3.47,8.11,4.7,4.7,0,0,0,.63.22c3.55,1.13,7.77-.65,10.64-2.68s6.37-7.71,7.56-9.68c1.68.78,3.37,1.56,5,2.4,1.07.59,2.15,1.09,3.2,1.75l3.13,1.87c1.94,1.26,4,2.55,5.82,3.83,1.3.88,2.53,1.74,3.76,2.61-1.69-.69-5-2-5.34-2-4.56-1.17-14.06-.74-16.87,3.72a6.26,6.26,0,0,0,2.21,8.56,6.36,6.36,0,0,0,.58.3c3.33,1.65,7.78.53,10.93-1,3.46-1.73,8.69-8.12,9.34-8.93,2,1.44,4,2.86,5.86,4.23,3.13,2.32,6,4.5,8.46,6.48l2.47-2.34c-2.67-2-5.71-4.28-9.1-6.67-2.07-1.47-4.31-3-6.62-4.55a65.48,65.48,0,0,0,2.89-7.42c4,.26,11.34-2,12.29-2.32.91,2.33,1.78,4.6,2.56,6.75q1.82,5,3.2,9.25l2.65-2.52c-.87-2.43-1.85-5.05-2.93-7.83-.91-2.36-1.94-4.87-3-7.44.87-.53,7.89-4.93,10-8.15,2-2.92,3.63-7.19,2.41-10.71a6.24,6.24,0,0,0-7.81-4.11,6.56,6.56,0,0,0-.62.23c-4.79,2.22-6.41,11.59-5.83,16.27,0,.27.74,3.22,1.22,5.07-.45-1-.87-2.06-1.34-3.14-.92-2.12-1.9-4.22-2.94-6.47l-1.65-3.25c-.53-1.1-1.22-2.19-1.83-3.3-1.48-2.54-3.09-5-4.77-7.52,1.86-.81,8.42-3.78,10.8-6.38s4.68-6.56,4-10.22a6.25,6.25,0,0,0-7.11-5.25c-.22,0-.43.08-.64.13-5.06,1.48-8.09,10.49-8.22,15.2,0,.29.27,3.68.46,5.54-1-1.49-2-3-3.12-4.44-3.13-4.24-6.42-8.43-9.7-12.63-1-1.28-2-2.58-3-3.87.66-.28,8.54-3.64,11.21-6.55,2.37-2.6,4.68-6.56,4-10.22a6.23,6.23,0,0,0-7.09-5.25,5.13,5.13,0,0,0-.66.13c-5.06,1.47-8.08,10.49-8.22,15.2,0,.35.41,5.22.57,6.46-2.17-2.84-4.32-5.7-6.32-8.59a109.45,109.45,0,0,1-7.38-12.19c.31-.13,8.54-3.6,11.28-6.59,2.37-2.6,4.68-6.56,4-10.22a6.23,6.23,0,0,0-7.09-5.25,5.13,5.13,0,0,0-.66.13c-5,1.49-8,10.49-8.17,15.16,0,.31.31,4,.5,5.78l-.29.09a81.25,81.25,0,0,1-5.1-13.4c-.74-2.53-1.31-5-1.82-7.39,1.61-.49,8.89-2.8,11.65-5.22s5.37-6,5.11-9.72a6.24,6.24,0,0,0-6.48-6l-.66.06c-5.2.91-9.19,9.53-9.84,14.2,0,.25-.11,2.87-.14,4.78-.21-1.09-.45-2.21-.63-3.26-.69-3.93-1.07-7.56-1.39-10.79-.17-1.84-.28-3.5-.37-5.06,1.32-1.29,6.58-6.6,7.89-9.95s2-7.81,0-11a6.26,6.26,0,0,0-8.56-2.26A4.66,4.66,0,0,0,188.27,247.84Z" transform="translate(-16.61 -30.18)"/><path class="cls-1" d="M481.78,140c-3.07.06-9.37-2.73-9.37-2.73s3.09-3.59,3.32-3.8c2.6-2.34,9-5.32,12.41-3.35a4.65,4.65,0,0,1,1.48,6.41,4.56,4.56,0,0,1-.27.39C487.72,139.21,484.4,140,481.78,140Z" transform="translate(-16.61 -30.18)"/><path class="cls-1" d="M416.87,114.73c-.07,0,.6-4.7.68-5,.88-3.39,4.58-9.42,8.5-9.64a4.65,4.65,0,0,1,4.77,4.53,3.73,3.73,0,0,1,0,.47c-.12,2.76-2.46,5.25-4.61,6.74C423.67,113.58,416.88,114.73,416.87,114.73Z" transform="translate(-16.61 -30.18)"/><path class="cls-1" d="M407.46,83.8c3.76,1.11,6,7.83,6.08,11.33,0,.3-.41,5.05-.48,5H413c.36,1.06.74,2.19,1.12,3.44.69,2.32,1.45,4.94,2.08,7.86a82.27,82.27,0,0,1,1.6,9.48,60.43,60.43,0,0,1,.27,10.76v.13c.42-1.07,1.7-4,1.83-4.23,1.75-3,6.91-7.88,10.75-7.06a4.65,4.65,0,0,1,3.41,5.62,3.64,3.64,0,0,1-.14.47c-.85,2.64-3.76,4.42-6.23,5.28-2.79,1-9.16.39-9.67.34a80.93,80.93,0,0,1-1.7,10.84c-.46,2.08-1,4.16-1.54,6.24.39-.91.75-1.72.82-1.83,1.74-3,6.91-7.88,10.74-7.06a4.64,4.64,0,0,1,3.42,5.6,4,4,0,0,1-.15.49c-.85,2.64-3.75,4.42-6.22,5.28s-8,.49-9.39.36l-.66,2.39c-1.08,3.82-2.16,7.62-3.12,11.39-.34,1.32-.62,2.64-.91,4,.35-.81.66-1.49.71-1.59,1.75-3,6.91-7.87,10.75-7.05a4.65,4.65,0,0,1,3.41,5.62c0,.16-.09.32-.14.47-.85,2.63-3.76,4.42-6.23,5.28s-7.42.52-9.13.38c-.25,1.36-.51,2.72-.69,4.05-.11.91-.27,1.78-.33,2.7s-.15,1.81-.22,2.7c-.08,1.72-.17,3.5-.2,5.18,0,1.17,0,2.28-.05,3.41.32-1.33,1-3.91,1.08-4.12a18,18,0,0,1,5.6-7.17,5.22,5.22,0,0,1,.45-.92,4.64,4.64,0,0,1,6.33-1.73l.42.27c3.12,2.38,2.79,9.45,1.61,12.75-.07.19-1.06,2.22-1.7,3.49.49-.69,1-1.36,1.48-2.06,1-1.4,2.06-2.76,3.18-4.23l1.72-2.1c.56-.71,1.24-1.39,1.86-2.1,1.48-1.6,3.06-3.16,4.68-4.69-1.22-.89-5.51-4.1-6.82-6.38s-2.34-5.52-1.26-8.07a4.64,4.64,0,0,1,6-2.66,4.43,4.43,0,0,1,.45.2c3.44,1.88,4.19,8.92,3.52,12.36,0,.21-.79,2.63-1.23,4,1-.92,2-1.83,3-2.72,3-2.58,6-5.09,9.09-7.61l2.78-2.33c-.43-.31-5.62-4-7.08-6.57-1.31-2.27-2.35-5.52-1.27-8.07a4.65,4.65,0,0,1,6-2.67,4.43,4.43,0,0,1,.45.2C451,150,451.7,157,451,160.45c-.05.26-1.14,3.74-1.46,4.61,2-1.72,4.06-3.44,6-5.23a80.34,80.34,0,0,0,7.33-7.66c-.2-.14-5.63-4-7.13-6.6-1.31-2.27-2.34-5.52-1.26-8.07a4.62,4.62,0,0,1,6-2.68,4.1,4.1,0,0,1,.48.21c3.44,1.89,4.18,8.92,3.52,12.36,0,.23-.87,2.88-1.29,4.13l.2.1a60.6,60.6,0,0,0,5.86-8.91c.95-1.71,1.76-3.41,2.51-5.07-1.08-.61-6-3.47-7.62-5.67s-2.93-5.23-2.14-7.88a4.64,4.64,0,0,1,5.66-3.31,3.82,3.82,0,0,1,.48.15c3.63,1.49,5.14,8.41,4.86,11.9,0,.19-.38,2.1-.67,3.49.33-.76.68-1.53,1-2.26,1.13-2.74,2-5.32,2.75-7.62.42-1.3.77-2.49,1.09-3.61-.75-1.16-3.72-5.85-4.13-8.5s-.19-6,1.74-8a4.62,4.62,0,0,1,6.54-.36,4.08,4.08,0,0,1,.36.36c2.53,3,.69,9.83-1.17,12.8-.16.26-3.13,4-3.17,3.93V123c-.28,1.08-.59,2.23-1,3.49-.71,2.31-1.52,4.92-2.6,7.7a83,83,0,0,1-3.9,8.79,61.1,61.1,0,0,1-5.71,9.12l-.09.1c.94-.66,3.64-2.41,3.86-2.52,3.13-1.57,10.11-2.76,12.86,0a4.65,4.65,0,0,1-.26,6.57l-.37.31c-2.17,1.73-5.58,1.62-8.11,1-2.86-.72-7.85-4.73-8.25-5.05a82.25,82.25,0,0,1-7.4,8.1c-1.53,1.48-3.12,2.93-4.73,4.36l1.69-1.08c3.14-1.57,10.11-2.76,12.86.05a4.65,4.65,0,0,1-.24,6.56l-.39.32c-2.16,1.73-5.57,1.61-8.11,1s-6.9-4-8-4.88l-1.86,1.63c-3,2.59-6,5.16-8.89,7.77-1,.93-2,1.87-2.94,2.81.74-.48,1.37-.88,1.47-.93,3.13-1.57,10.11-2.76,12.85,0a4.65,4.65,0,0,1-.24,6.56l-.39.32c-2.16,1.73-5.57,1.62-8.1,1s-6.48-3.66-7.83-4.71c-1,1-1.93,2-2.81,3-.59.7-1.21,1.33-1.76,2.07s-1.13,1.43-1.68,2.13c-1,1.39-2.07,2.82-3,4.21-.67,1-1.3,1.88-1.93,2.81,1-.92,3-2.7,3.18-2.83,2.85-2,9.57-4.26,12.71-1.9a4.62,4.62,0,0,1,.76,6.5,3.17,3.17,0,0,1-.34.39c-1.88,2-5.26,2.44-7.87,2.19-2.87-.28-8.2-3.33-8.87-3.71-1,1.54-2,3-2.94,4.49-1.56,2.45-3,4.72-4.16,6.76l-2.33-1c1.31-2.12,2.82-4.49,4.54-7.06,1.05-1.57,2.2-3.23,3.39-4.92a50.41,50.41,0,0,1-4-4.39c-2.68,1.24-8.41,1.62-9.15,1.66v5.38c0,2.64.13,5.07.23,7.27l-2.5-1c0-1.92-.06-4-.05-6.22,0-1.89.05-3.9.11-6-.74-.14-6.79-1.32-9.14-3-2.14-1.52-4.44-4-4.53-6.8a4.66,4.66,0,0,1,4.36-4.94,3.65,3.65,0,0,1,.47,0c3.91.28,7.54,6.35,8.38,9.75,0,.21.34,2.44.5,3.86,0-.85,0-1.67.1-2.54.07-1.72.19-3.44.32-5.29.09-.89.18-1.78.28-2.69s.26-1.85.39-2.78c.35-2.15.81-4.32,1.31-6.5-1.5-.06-6.85-.38-9.2-1.55s-5-3.31-5.51-6a4.64,4.64,0,0,1,3.53-5.53,3.85,3.85,0,0,1,.47-.08c3.91-.33,8.41,5.13,9.75,8.36.09.21.79,2.64,1.15,4,.32-1.31.63-2.61,1-3.92,1-3.78,2.22-7.57,3.38-11.35.35-1.16.69-2.32,1-3.48-.54,0-6.91-.26-9.54-1.58-2.34-1.17-5-3.31-5.5-6a4.64,4.64,0,0,1,3.52-5.54l.48-.08c3.91-.32,8.41,5.14,9.76,8.37.1.25,1.11,3.74,1.32,4.64.76-2.55,1.49-5.1,2.11-7.65a82.15,82.15,0,0,0,1.88-10.44c-.25,0-6.89-.22-9.59-1.57-2.34-1.17-5-3.31-5.5-6a4.64,4.64,0,0,1,3.52-5.54l.48-.08c3.91-.33,8.41,5.13,9.76,8.37.08.21.85,2.87,1.19,4.15h.23a59.31,59.31,0,0,0,0-10.66c-.16-2-.41-3.82-.71-5.62-1.24.08-6.92.42-9.48-.53s-5.33-2.74-6.13-5.39a4.64,4.64,0,0,1,2.93-5.87,3.81,3.81,0,0,1,.45-.13c3.85-.75,8.92,4.18,10.62,7.25.09.17.84,2,1.36,3.28-.14-.81-.27-1.65-.43-2.42-.57-2.92-1.26-5.55-1.9-7.87-.38-1.32-.74-2.51-1.09-3.61-1.27-.56-6.33-2.84-8.13-4.82s-3.47-4.89-3-7.61a4.65,4.65,0,0,1,5.15-4.09Q407.15,83.73,407.46,83.8Z" transform="translate(-16.61 -30.18)"/></g><g id="freepik--Character--inject-104"><path class="cls-4" d="M137.11,339.14s-5.67,21.07-5,27.36,3.78,12.89.63,23.27-11.32,27.36-11.32,27.36l-.31,2.2s1.57,0,1.57,4.09v6.29s7.23,7.23,8.18,9.75-.32,12-5.35,12c-10,0-11.13-5.85-13.84-12.27-4.92-11.66-5-12.57-3.46-20.12s1.89-20.13,1.58-28.3-1-23.9.63-30.51,1.57-26.41.62-29.87S138.68,336,138.68,336Z" transform="translate(-16.61 -30.18)"/><path class="cls-4" d="M130.82,439.46c-.95-2.52-8.18-9.75-8.18-9.75v-6.29c0-4.09-1.57-4.09-1.57-4.09s-5.66-1.26-7.24,1.26l-1.57,2.52-3.74-6c-.11.66-.22,1.3-.35,1.91-1.57,7.55-1.46,8.46,3.46,20.12,2.71,6.42,3.79,12.27,13.84,12.27C130.5,451.41,131.76,442,130.82,439.46Z" transform="translate(-16.61 -30.18)"/><path class="cls-5" d="M122.64,429.71s-3.15,3.46-9.12,2.2" transform="translate(-16.61 -30.18)"/><path class="cls-6" d="M83.64,330s4.41,16.67,4.72,23.59-5.34,20.12-2.51,32.7S94,418.07,95,422.79a39.3,39.3,0,0,1,.94,6.29s-6.6-4.72-11.32-2.83-6,9.44-2.52,18.24,18.56,14.15,22.33,15.41,9.43-2.2,9.12-6a20.59,20.59,0,0,0-1.26-6s.95-1.26.63-4.4a9.37,9.37,0,0,0-1.26-4.41s-3.14-33-.94-44,5-18.56,3.77-26.73-1.88-17-1.88-17,2.2-14.47,2.2-17.93S100.94,317.76,83.64,330Z" transform="translate(-16.61 -30.18)"/><path class="cls-6" d="M113.52,453.92a20.59,20.59,0,0,0-1.26-6s.95-1.26.63-4.4a9.37,9.37,0,0,0-1.26-4.41l-1.88.63a26.17,26.17,0,0,0-3.78-6.92c-2.2-2.51-5.34.32-5.34.32-1.26-2.2-4.72-4.09-4.72-4.09s-6.6-4.72-11.32-2.83-6,9.44-2.52,18.24,18.56,14.15,22.33,15.41S113.83,457.7,113.52,453.92Z" transform="translate(-16.61 -30.18)"/><path class="cls-7" d="M82.07,444.49c3.46,8.81,18.56,14.15,22.33,15.41,2.64.88,6.2-.55,8-2.78-1-2.55-5-4-7.68-5.71-3.45-2.2-5.66-8.18-9.12-17.61s-11-7.55-11-7.55C79.87,428.14,78.61,435.69,82.07,444.49Z" transform="translate(-16.61 -30.18)"/><path class="cls-5" d="M100.63,433.17s3.46,1.57,3.77,7.86" transform="translate(-16.61 -30.18)"/><path class="cls-8" d="M74.17,229s-10,30-10.33,51.67,5.33,34.66,5.33,43.33.34,20.33.34,20.33l8-2.33V325.67l4.33,15.66s9.33-10,18-9.33,13.67,6.33,25.33,9.33,24.34.34,24.34.34.91-11.82,3.33-26.34A158.18,158.18,0,0,0,153.4,266a115.05,115.05,0,0,0-5.6-22.54c-.49-1.34-5.31-16.16-6.63-16.13Z" transform="translate(-16.61 -30.18)"/><path class="cls-9" d="M110.08,275.12c2.74,9.6,6.36,23.94,7.26,35.38" transform="translate(-16.61 -30.18)"/><path class="cls-9" d="M106.84,264.5s.49,1.48,1.27,4" transform="translate(-16.61 -30.18)"/><path class="cls-9" d="M118.34,289.5s3,15,3,27.5" transform="translate(-16.61 -30.18)"/><path class="cls-10" d="M93.84,157s-18.75,9.75-23,11-8.5,9-9.25,12.5S47.84,211,44.34,220.25,38.09,233.5,41.09,237s11.75,8,16.5,2.5S72.34,211,72.34,211l.25,20.25s11,4.5,31.25,4.75,40.25-5,40.25-5V204l15.5,23.75a11.43,11.43,0,0,0,13,1.75c7.5-3.75,7.25-8.5,3.75-16s-20-37-25-45.25-15.5-10.5-20-11.25-13.25-1.75-13.25-1.75Z" transform="translate(-16.61 -30.18)"/><path class="cls-1" d="M74.11,184.18c1.23.8,2.27,1.56,3.27,2.3,4.1,3,7.34,5.4,17.67,5.4,12.33,0,33.83-4.49,46.68-8.65,3.3-1.06,6.14-2.08,8.65-3s4.68-1.66,6.63-2.25l-1.53-2.67c-1.86.58-3.87,1.3-6.11,2.1-2.49.89-5.31,1.9-8.56,3-12.64,4.09-33.72,8.5-45.76,8.5-9.35,0-12-1.92-15.89-4.82-1-.73-2.11-1.55-3.42-2.4-4.42-2.85-9.9-3.67-13.21-3.89a15.45,15.45,0,0,0-.94,2.73.32.32,0,0,1-.06.22C64.35,180.85,69.89,181.45,74.11,184.18Z" transform="translate(-16.61 -30.18)"/><path class="cls-1" d="M75.41,175.46c4,3.65,5.52,5.16,5.54,5.17l.41.41H82c.06,0,1.51.06,4,.06,8.35,0,28.29-.64,46.07-6.09,7.89-2.42,14.65-4.08,20.26-5.23-.35-.57-.66-1.1-.94-1.56s-.5-.77-.77-1.14c-5.48,1.15-12,2.77-19.43,5.06-20.74,6.36-44.54,6-48.5,5.92-.7-.68-2.29-2.2-5.21-4.85-2.25-2-6.05-3.07-9.33-3.59a17.43,17.43,0,0,0-2.45,2.7C69,172.71,73.35,173.59,75.41,175.46Z" transform="translate(-16.61 -30.18)"/><path class="cls-1" d="M133.91,157.5c-1-.22-1.85-.38-2.57-.5-.88-.15-1.93-.3-3.05-.46a74.43,74.43,0,0,1-39.56,3.08l-4.12,2.08A71.75,71.75,0,0,0,103,164,76.36,76.36,0,0,0,133.91,157.5Z" transform="translate(-16.61 -30.18)"/><path class="cls-1" d="M59.52,218.83c-4.75-2.16-10.11-2-14.05-1.41-.44,1.06-.82,2-1.13,2.83l-.18.46c3.56-.73,9.31-1.34,14.12.85,3.42,1.56,5.86,2.72,7.54,3.54.44-.91.88-1.81,1.3-2.7C65.42,221.56,63,220.39,59.52,218.83Z" transform="translate(-16.61 -30.18)"/><path class="cls-1" d="M101.33,173.26a78.92,78.92,0,0,0,11.07-.78,102.52,102.52,0,0,0,33.07-10.29,25,25,0,0,0-3.13-1.81A101.36,101.36,0,0,1,112,169.51c-17.18,2.38-29.84-1.61-35.4-3.92-1.38.64-2.64,1.2-3.68,1.64C76,168.79,86.15,173.26,101.33,173.26Z" transform="translate(-16.61 -30.18)"/><path class="cls-1" d="M144.09,222.83c-4.23,1.09-13.25,3.25-26.19,5.58-15.07,2.71-38-2.12-45.39-3.86v3.1c6.43,1.5,21.33,4.58,34.85,4.58a63.27,63.27,0,0,0,11-.87c12.29-2.21,21.1-4.28,25.66-5.43Z" transform="translate(-16.61 -30.18)"/><path class="cls-1" d="M63.14,203.31c9.18,4,17.37,8.12,17.45,8.16l.3.15h3.65c7.95,0,28.42-.51,43.76-5.32a147.78,147.78,0,0,0,19.33-7.83c7-3.28,12.29-5.72,17.74-5.61-.54-1-1.09-2-1.64-3-5.54.35-10.89,2.83-17.36,5.86a146,146,0,0,1-19,7.67c-17.37,5.61-42.59,5.3-45.74,5.25-1.57-.78-9-4.45-17.28-8.08A29.13,29.13,0,0,0,54.1,198l-1.35,3A25.19,25.19,0,0,1,63.14,203.31Z" transform="translate(-16.61 -30.18)"/><path class="cls-1" d="M62.82,213.39l6.27,2.51a1.81,1.81,0,0,0,.59,1c.6-1.31,1.12-2.48,1.54-3.42l-7.29-2.92c-4.24-1.69-10-2.35-14.35-2.59l-1.32,3C52.52,211.13,58.6,211.7,62.82,213.39Z" transform="translate(-16.61 -30.18)"/><path class="cls-1" d="M72.38,214l.05,4.14c2.94.74,8.59,1.39,19.6,1.71q4.18.12,8.11.12c21.46,0,36.88-2.48,39.49-3.59a22.4,22.4,0,0,1,4.46-1.39v-4a14.71,14.71,0,0,0-1,1.17,25.89,25.89,0,0,0-4.62,1.48c-2.41,1-20.93,4-46.32,3.23-11.62-.33-16.65-1.05-18.81-1.56l.93-.54Z" transform="translate(-16.61 -30.18)"/><path class="cls-1" d="M174.91,210.6l-1.5-2.89a41,41,0,0,0-21.14,8.83L154,219.1A38.12,38.12,0,0,1,174.91,210.6Z" transform="translate(-16.61 -30.18)"/><path class="cls-1" d="M170.15,201.61l-1.66-3c-9.49.14-17.2,5.58-21.65,9.64l1.68,2.58C152.8,206.83,160.7,201.12,170.15,201.61Z" transform="translate(-16.61 -30.18)"/><path class="cls-1" d="M69,194.7c3.15,1.61,5.42,2.87,7.24,3.88,3.79,2.11,5.7,3.17,9.24,3.72a10.92,10.92,0,0,0,1.51.08c8.32,0,38.55-4.53,49-9.92a100.36,100.36,0,0,1,24.13-9l-1.54-2.73a104,104,0,0,0-24,9c-10.53,5.45-43.92,10.27-48.66,9.54-3-.46-4.53-1.31-8.23-3.37-1.84-1-4.13-2.3-7.34-3.94a30.27,30.27,0,0,0-12-3.51l-1.32,3A26,26,0,0,1,69,194.7Z" transform="translate(-16.61 -30.18)"/><g class="cls-11"><path class="cls-10" d="M74.11,184.18c1.23.8,2.27,1.56,3.27,2.3,4.1,3,7.34,5.4,17.67,5.4,12.33,0,33.83-4.49,46.68-8.65,3.3-1.06,6.14-2.08,8.65-3s4.68-1.66,6.63-2.25l-1.53-2.67c-1.86.58-3.87,1.3-6.11,2.1-2.49.89-5.31,1.9-8.56,3-12.64,4.09-33.72,8.5-45.76,8.5-9.35,0-12-1.92-15.89-4.82-1-.73-2.11-1.55-3.42-2.4-4.42-2.85-9.9-3.67-13.21-3.89a15.45,15.45,0,0,0-.94,2.73.32.32,0,0,1-.06.22C64.35,180.85,69.89,181.45,74.11,184.18Z" transform="translate(-16.61 -30.18)"/><path class="cls-10" d="M75.41,175.46c4,3.65,5.52,5.16,5.54,5.17l.41.41H82c.06,0,1.51.06,4,.06,8.35,0,28.29-.64,46.07-6.09,7.89-2.42,14.65-4.08,20.26-5.23-.35-.57-.66-1.1-.94-1.56s-.5-.77-.77-1.14c-5.48,1.15-12,2.77-19.43,5.06-20.74,6.36-44.54,6-48.5,5.92-.7-.68-2.29-2.2-5.21-4.85-2.25-2-6.05-3.07-9.33-3.59a17.43,17.43,0,0,0-2.45,2.7C69,172.71,73.35,173.59,75.41,175.46Z" transform="translate(-16.61 -30.18)"/><path class="cls-10" d="M133.91,157.5c-1-.22-1.85-.38-2.57-.5-.88-.15-1.93-.3-3.05-.46a74.43,74.43,0,0,1-39.56,3.08l-4.12,2.08A71.75,71.75,0,0,0,103,164,76.36,76.36,0,0,0,133.91,157.5Z" transform="translate(-16.61 -30.18)"/><path class="cls-10" d="M59.52,218.83c-4.75-2.16-10.11-2-14.05-1.41-.44,1.06-.82,2-1.13,2.83l-.18.46c3.56-.73,9.31-1.34,14.12.85,3.42,1.56,5.86,2.72,7.54,3.54.44-.91.88-1.81,1.3-2.7C65.42,221.56,63,220.39,59.52,218.83Z" transform="translate(-16.61 -30.18)"/><path class="cls-10" d="M101.33,173.26a78.92,78.92,0,0,0,11.07-.78,102.52,102.52,0,0,0,33.07-10.29,25,25,0,0,0-3.13-1.81A101.36,101.36,0,0,1,112,169.51c-17.18,2.38-29.84-1.61-35.4-3.92-1.38.64-2.64,1.2-3.68,1.64C76,168.79,86.15,173.26,101.33,173.26Z" transform="translate(-16.61 -30.18)"/><path class="cls-10" d="M144.09,222.83c-4.23,1.09-13.25,3.25-26.19,5.58-15.07,2.71-38-2.12-45.39-3.86v3.1c6.43,1.5,21.33,4.58,34.85,4.58a63.27,63.27,0,0,0,11-.87c12.29-2.21,21.1-4.28,25.66-5.43Z" transform="translate(-16.61 -30.18)"/><path class="cls-10" d="M63.14,203.31c9.18,4,17.37,8.12,17.45,8.16l.3.15h3.65c7.95,0,28.42-.51,43.76-5.32a147.78,147.78,0,0,0,19.33-7.83c7-3.28,12.29-5.72,17.74-5.61-.54-1-1.09-2-1.64-3-5.54.35-10.89,2.83-17.36,5.86a146,146,0,0,1-19,7.67c-17.37,5.61-42.59,5.3-45.74,5.25-1.57-.78-9-4.45-17.28-8.08A29.13,29.13,0,0,0,54.1,198l-1.35,3A25.19,25.19,0,0,1,63.14,203.31Z" transform="translate(-16.61 -30.18)"/><path class="cls-10" d="M62.82,213.39l6.27,2.51a1.81,1.81,0,0,0,.59,1c.6-1.31,1.12-2.48,1.54-3.42l-7.29-2.92c-4.24-1.69-10-2.35-14.35-2.59l-1.32,3C52.52,211.13,58.6,211.7,62.82,213.39Z" transform="translate(-16.61 -30.18)"/><path class="cls-10" d="M72.38,214l.05,4.14c2.94.74,8.59,1.39,19.6,1.71q4.18.12,8.11.12c21.46,0,36.88-2.48,39.49-3.59a22.4,22.4,0,0,1,4.46-1.39v-4a14.71,14.71,0,0,0-1,1.17,25.89,25.89,0,0,0-4.62,1.48c-2.41,1-20.93,4-46.32,3.23-11.62-.33-16.65-1.05-18.81-1.56l.93-.54Z" transform="translate(-16.61 -30.18)"/><path class="cls-10" d="M174.91,210.6l-1.5-2.89a41,41,0,0,0-21.14,8.83L154,219.1A38.12,38.12,0,0,1,174.91,210.6Z" transform="translate(-16.61 -30.18)"/><path class="cls-10" d="M170.15,201.61l-1.66-3c-9.49.14-17.2,5.58-21.65,9.64l1.68,2.58C152.8,206.83,160.7,201.12,170.15,201.61Z" transform="translate(-16.61 -30.18)"/><path class="cls-10" d="M69,194.7c3.15,1.61,5.42,2.87,7.24,3.88,3.79,2.11,5.7,3.17,9.24,3.72a10.92,10.92,0,0,0,1.51.08c8.32,0,38.55-4.53,49-9.92a100.36,100.36,0,0,1,24.13-9l-1.54-2.73a104,104,0,0,0-24,9c-10.53,5.45-43.92,10.27-48.66,9.54-3-.46-4.53-1.31-8.23-3.37-1.84-1-4.13-2.3-7.34-3.94a30.27,30.27,0,0,0-12-3.51l-1.32,3A26,26,0,0,1,69,194.7Z" transform="translate(-16.61 -30.18)"/></g><path class="cls-5" d="M93.84,157s-18.75,9.75-23,11-8.5,9-9.25,12.5S47.84,211,44.34,220.25,38.09,233.5,41.09,237s11.75,8,16.5,2.5S72.34,211,72.34,211l.25,20.25s11,4.5,31.25,4.75,40.25-5,40.25-5V204l15.5,23.75a11.43,11.43,0,0,0,13,1.75c7.5-3.75,7.25-8.5,3.75-16s-20-37-25-45.25-15.5-10.5-20-11.25-13.25-1.75-13.25-1.75Z" transform="translate(-16.61 -30.18)"/><path class="cls-12" d="M103.84,161.25a93.21,93.21,0,0,0,25,19.25c14.75,7.5,31.25,8,44.25,1s19.75-9.25,19.75-9.25l-5.5-14a69.79,69.79,0,0,1-25.5,10.25c-15.5,3-31,.75-36.5-2.5s-11-6.25-11-6.25Z" transform="translate(-16.61 -30.18)"/><path class="cls-12" d="M107.34,159c1,.5,21,13.75,36,13.5s21-7,34-15.75a75.65,75.65,0,0,1,27-11L202.84,132s-20.5-1.75-36,7.5-26.75,19-33.5,20a20.69,20.69,0,0,1-12.5-2.5Z" transform="translate(-16.61 -30.18)"/><path class="cls-8" d="M107.52,165h8.74s5.43-3.07,6.61-3.78,2.84-1.66,2.84-1.66l.88-2.1s-11.28,3.29-15.06,3.29a20.59,20.59,0,0,0-6.38.94Z" transform="translate(-16.61 -30.18)"/><path class="cls-8" d="M143.09,125.83c-1.5-2.25,2.5-4.5,2-9.25s-7-5-7.5-8.75-1-13-6.75-21c-10.26-14.28-34.15-14.4-44.5,0-5.75,8-6.25,17.25-6.75,21s-7,4-7.5,8.75,3.5,7,2,9.25-8,5.5-8,11a17.86,17.86,0,0,0,2,8.75h81a17.86,17.86,0,0,0,2-8.75C151.09,131.33,144.59,128.08,143.09,125.83Z" transform="translate(-16.61 -30.18)"/><path class="cls-6" d="M89.59,121.58s-4.5-6-5.5.25,6.75,8.75,6.75,8.75Z" transform="translate(-16.61 -30.18)"/><path class="cls-6" d="M127.5,121.58s4.5-6,5.5.25-6.75,8.75-6.75,8.75Z" transform="translate(-16.61 -30.18)"/><polygon class="cls-6" points="77.73 102.07 81.23 119.57 103.73 119.57 107.48 103.57 77.73 102.07"/><path class="cls-12" d="M100.59,145s-6-1.25-6.5.25-1.5,14.25-.25,15.25,7.5,2.75,15.75,2.25,17.25-2.25,17-5.25-1.5-9.5-1.5-11.5S100.59,145,100.59,145Z" transform="translate(-16.61 -30.18)"/><path class="cls-8" d="M100.59,145a28.53,28.53,0,0,0-2.9-.42c4.3,4.58,9.91,7.67,14.9,6.7,3.23-.62,6.24-3.07,8.71-6.28C114.42,144.44,100.59,145,100.59,145Z" transform="translate(-16.61 -30.18)"/><path class="cls-6" d="M124.34,106.58a5.89,5.89,0,0,1-3.25-5.75,4.34,4.34,0,0,1-2.5,1.25c-2,.5-4.5-.5-6.75-.5s-3.5,3.5-4.75,7.75-9.25,1.25-13.75,1.5a6.11,6.11,0,0,0-5.07,3.4c.74,6.67,2,14.84,3.82,19.35,3.5,8.5,12.75,16.75,20.5,15.25s14.25-13.5,15-21.25c.36-3.69.71-8.39,1-13.12C128.08,112,126.92,108,124.34,106.58Z" transform="translate(-16.61 -30.18)"/><ellipse class="cls-3" cx="86.48" cy="92.9" rx="1.5" ry="3"/><ellipse class="cls-3" cx="98.48" cy="92.9" rx="1.5" ry="3"/><path class="cls-5" d="M105.84,133.33s2,3.25,4.75,2.5a6.85,6.85,0,0,0,4-3.5" transform="translate(-16.61 -30.18)"/><path class="cls-5" d="M97.38,117.28a6.23,6.23,0,0,1,8.23-2.47" transform="translate(-16.61 -30.18)"/><path class="cls-5" d="M113.09,113.83s5.25-1.25,7.5,3.75" transform="translate(-16.61 -30.18)"/><path class="cls-5" d="M106.09,139.08s3.25,3,8,0" transform="translate(-16.61 -30.18)"/><path class="cls-8" d="M126.51,213.19l-11.22,1a2.5,2.5,0,0,1-2.7-2.27l-2.85-28.74a2.49,2.49,0,0,1,2.26-2.7l11.22-1a2.49,2.49,0,0,1,2.7,2.26l2.86,28.74A2.49,2.49,0,0,1,126.51,213.19Z" transform="translate(-16.61 -30.18)"/><path class="cls-6" d="M169,213.89s-25.91-2.13-29.26-4.15-7.61-5.37-9.72-10.3-5.94-4.23-10-4.3-9.93,2-9,3.3,4,.07,6.76,0,6.23.5,7.15,1.57a23.57,23.57,0,0,1,1.59,2.13s-7,0-10.41,1.69-5.32,3.84-5.48,5.83,2.28-.16,3.61-1.06a19.41,19.41,0,0,1,5.27-2.22,10.49,10.49,0,0,1,3.4-.11l2.49.55a42.1,42.1,0,0,1-5.87,1.29c-4.07.68-9.47,5.52-8.53,6.35s5.75-2.22,7.62-2.78a22.24,22.24,0,0,1,4.2-.8,15.9,15.9,0,0,1,2.76,0s-6.27,3.26-8.66,4.83-.42,2.22,2.17,1.17,7.21-2.44,7.21-2.44a17,17,0,0,0,5.87,2,41.86,41.86,0,0,0,4.75.13s16.43,7.9,23.84,12.5,14,3.86,17.13-.91,2.28-9.85-.78-12.35S169,213.89,169,213.89Z" transform="translate(-16.61 -30.18)"/><path class="cls-13" d="M77.71,232l-13.83-.3s-14.73,27.09-16.83,33.4,7,12.32,10.82,13.23,15,.9,17.13-2.41,5.71-32.77,6-38.48S77.71,232,77.71,232Z" transform="translate(-16.61 -30.18)"/><path class="cls-14" d="M77.71,232l-5.38-.12c-2,5.24-15.23,39.85-13.23,45.29a8.28,8.28,0,0,0,.71,1.43c4.81.54,13.37.15,15.19-2.71,2.11-3.31,5.71-32.77,6-38.48S77.71,232,77.71,232Z" transform="translate(-16.61 -30.18)"/><path class="cls-13" d="M74.4,166.5s4.21,21.34,5.11,31.86-4.81,42.69-6,46.3.6,7.51,2.1,7.51,3.61-3,4.21-7.51S84,211,84,203.47s-5.11-39.07-5.11-39.07Z" transform="translate(-16.61 -30.18)"/><path class="cls-6" d="M76.63,222.09a37.62,37.62,0,0,0-5.82,6.21c-2.72,3.69-14.75,19.41-19.22,20.38s-13.59-1.55-14.75-6.6,0-10.48,7.18-13.59,21.74-9.12,21.74-9.12,8.35-9.12,9.13-10.29A52.13,52.13,0,0,1,79,203.45c.77-.63,8.74-2.71,10.1-1.94A4.21,4.21,0,0,1,91,205.2c-.19,1-1.36,1.55-1.36,2.72s1.17,8.93-.19,10.48S76.63,222.09,76.63,222.09Z" transform="translate(-16.61 -30.18)"/></g></svg>