<?xml version="1.0" encoding="utf-8"?>
<!-- Generator: Adobe Illustrator 25.0.0, SVG Export Plug-In . SVG Version: 6.00 Build 0)  -->
<svg version="1.0" id="Layer_1" xmlns="http://www.w3.org/2000/svg" xmlns:xlink="http://www.w3.org/1999/xlink" x="0px" y="0px"
	 viewBox="0 0 528.4 216" style="enable-background:new 0 0 528.4 216;" xml:space="preserve">
<style type="text/css">
	.st0{fill:#333333;}
</style>
<polygon points="0,149.5 34.1,82 0,27.5 "/>
<polygon class="st0" points="15.5,216 100,138.2 46,161.5 "/>
<polygon class="st0" points="82,0 0.7,157.3 53.6,130.5 99.4,75.1 "/>
<polygon points="53.6,130.5 0.7,157.3 46,161.5 100,138.2 "/>
<g>
	<path class="st0" d="M179.7,163.1c-6.8,0-13.5-1.1-20.1-3.3c-6.6-2.2-12.2-5.3-16.7-9.5l8.7-14.9c4.9,3.3,9.6,5.9,14.2,7.8
		c4.6,1.8,9,2.7,13.3,2.7c3.1,0,5.6-0.6,7.3-1.7c1.7-1.1,2.6-2.7,2.6-4.9s-1.1-3.8-3.3-5.1c-2.2-1.3-6-2.6-11.5-4
		c-5.4-1.5-9.9-3-13.6-4.4c-3.7-1.4-6.7-3-9-4.7c-2.3-1.7-4-3.7-5-5.9c-1-2.2-1.5-4.9-1.5-7.9c0-4.1,0.8-7.8,2.4-11.1
		c1.6-3.3,3.8-6.2,6.7-8.5c2.8-2.3,6.2-4.2,10.1-5.5c3.9-1.3,8.1-2,12.7-2c6,0,11.6,0.8,16.8,2.4c5.2,1.6,10.3,4.6,15.1,8.8
		l-9.4,14.6c-4.6-3.1-8.6-5.4-12.2-6.8c-3.5-1.4-7-2.1-10.3-2.1c-2.6,0-4.9,0.5-6.7,1.6c-1.8,1.1-2.7,2.8-2.7,5.1c0,2.2,1,3.9,3,5
		c2,1.1,5.6,2.3,11,3.6c5.7,1.5,10.5,3,14.4,4.6c3.9,1.5,7.1,3.2,9.5,5.1c2.4,1.9,4.2,4,5.3,6.5c1.1,2.4,1.7,5.3,1.7,8.7
		c0,7.9-2.9,14.2-8.8,18.8C197.7,160.7,189.7,163.1,179.7,163.1z"/>
	<path class="st0" d="M301,161.5h-24.3v-44.8c0-5.3-1-9.1-3-11.5c-2-2.4-4.6-3.6-7.8-3.6c-1.7,0-3.4,0.4-5.2,1.1
		c-1.7,0.7-3.4,1.7-5,3c-1.6,1.3-3.1,2.8-4.3,4.5c-1.3,1.7-2.3,3.6-3,5.6v45.8h-24.3V81.7h21.9v13.4c2.9-4.8,7.1-8.4,12.5-11
		c5.4-2.6,11.6-3.9,18.5-3.9c5.2,0,9.3,0.9,12.5,2.8c3.1,1.9,5.6,4.3,7.3,7.3c1.7,3,2.9,6.3,3.4,9.8c0.6,3.5,0.8,7,0.8,10.3V161.5z"
		/>
	<path class="st0" d="M355.1,163.1c-6.8,0-12.8-1.1-18.2-3.3c-5.3-2.2-9.8-5.2-13.5-9s-6.4-8.2-8.3-13.2c-1.9-5-2.8-10.3-2.8-15.7
		c0-5.5,0.9-10.7,2.8-15.7c1.9-5,4.6-9.4,8.3-13.2s8.1-6.8,13.5-9.1c5.3-2.3,11.4-3.4,18.2-3.4c6.8,0,12.8,1.1,18.1,3.4
		c5.3,2.3,9.7,5.3,13.4,9.1c3.6,3.8,6.4,8.2,8.4,13.2c1.9,5,2.9,10.3,2.9,15.7c0,5.5-0.9,10.7-2.8,15.7c-1.9,5-4.6,9.4-8.3,13.2
		c-3.6,3.8-8.1,6.8-13.5,9C367.9,161.9,361.9,163.1,355.1,163.1z M337.3,121.7c0,6.3,1.7,11.3,5,15.1s7.6,5.7,12.8,5.7
		c2.5,0,4.9-0.5,7-1.5c2.1-1,4-2.4,5.5-4.3c1.6-1.8,2.8-4,3.7-6.6s1.4-5.4,1.4-8.4c0-6.3-1.7-11.3-5-15.1c-3.3-3.8-7.5-5.7-12.6-5.7
		c-2.5,0-4.9,0.5-7.1,1.5c-2.2,1-4.1,2.4-5.6,4.3c-1.6,1.8-2.8,4-3.7,6.6S337.3,118.7,337.3,121.7z"/>
	<path class="st0" d="M505.3,81.7h23.1l-33,79.8h-19.9l-12.3-32.8l-12.3,32.8h-19.9l-33-79.8h23l21.7,57.3l7.4-21.7l-14.1-35.6h19.5
		l7.8,24l7.6-24h19.5l-14,35.6l7.4,21.7L505.3,81.7z"/>
</g>
</svg>
