<svg id="Layer_1" data-name="Layer 1" xmlns="http://www.w3.org/2000/svg" viewBox="0 0 424.55 216"><defs><style>.cls-1{fill:#eba12a;}.cls-2{fill:#ec8f26;}</style></defs><path class="cls-1" d="M235.31,76.69H202.48v86H177.55v-86h-33V54.8h90.75Z"/><path class="cls-1" d="M251.42,164.24a31.19,31.19,0,0,1-11-1.9,25.77,25.77,0,0,1-8.74-5.32,25.49,25.49,0,0,1-5.78-8.06,23.9,23.9,0,0,1-2.12-10.1,23.25,23.25,0,0,1,2.5-10.8,25,25,0,0,1,7.07-8.36,35,35,0,0,1,10.79-5.47,45.91,45.91,0,0,1,13.84-2,56.24,56.24,0,0,1,9.72.83,32.13,32.13,0,0,1,8.21,2.51V112q0-13.83-16-13.83a35.64,35.64,0,0,0-12.46,2.2A60.09,60.09,0,0,0,235,106.94l-7.14-15.2A63.85,63.85,0,0,1,244.28,84a62,62,0,0,1,18.08-2.58q18.09,0,28,8.51t9.88,24.93v20.52q0,3.64,1.14,5.09a5.62,5.62,0,0,0,4,1.75v20.52a39.82,39.82,0,0,1-5.78,1c-1.72.15-3.29.23-4.71.23q-6.84,0-10.33-2.66a11.76,11.76,0,0,1-4.41-7.53l-.46-3.65A36.4,36.4,0,0,1,267,160.59,34.73,34.73,0,0,1,251.42,164.24Zm7.14-17.48a22.13,22.13,0,0,0,7.68-1.37,18,18,0,0,0,6.16-3.65q3.5-2.73,3.49-5.77v-7.6a39,39,0,0,0-6.91-1.9,38.21,38.21,0,0,0-6.92-.69,18.79,18.79,0,0,0-11,3,9.28,9.28,0,0,0-4.33,7.91,9,9,0,0,0,3.34,7.22A12.8,12.8,0,0,0,258.56,146.76Z"/><path class="cls-1" d="M334.72,82.92l14.44,22.5,1.52,2.88,1.52-2.88,14.28-22.5h24.93l-27.66,40L392,162.72H367.09l-15-22.34-1.36-2.89-1.37,2.89-15.05,22.34H309.33L337.6,122.9l-27.66-40Z"/><path class="cls-1" d="M400.23,73.8v-22h24.32v22Zm0,88.92V82.92h24.32v79.8Z"/><polygon class="cls-2" points="0 149.46 34.08 81.99 0 27.52 0 149.46"/><polygon class="cls-1" points="15.47 216 100 138.25 45.96 161.54 15.47 216"/><polygon class="cls-1" points="82.01 0 0.71 157.3 53.62 130.48 99.38 75.13 82.01 0"/><polygon class="cls-2" points="53.62 130.48 0.71 157.3 45.96 161.54 100 138.25 53.62 130.48"/></svg>